<svg width="30" height="30" viewBox="0 0 30 30" fill="none" xmlns="http://www.w3.org/2000/svg">
<path fill-rule="evenodd" clip-rule="evenodd" d="M9.78304 29.9998H0.39133C0.174798 29.9998 0 29.8251 0 29.6085V20.7395C0 19.3909 0.53612 18.097 1.48962 17.1424C2.14051 16.4916 2.94925 16.0351 3.82581 15.8107C2.47444 15.0177 1.56398 13.5491 1.56398 11.869C1.56398 10.0496 2.63098 8.47663 4.17279 7.74372V2.86946H4.04235C3.53886 2.86946 3.12926 2.4599 3.12926 1.95645V0.913014C3.12926 0.408258 3.53886 0 4.04235 0H29.0869C29.5917 0 30 0.408258 30 0.913014V1.95645C30 2.4599 29.5917 2.86946 29.0869 2.86946H28.9565V21.26C28.9565 21.6408 28.8052 22.006 28.5365 22.2747C28.2677 22.5434 27.9025 22.6947 27.5216 22.6947L10.1744 22.696V29.6087C10.1744 29.8252 9.99958 29.9998 9.78304 29.9998ZM16.5658 16.4352H5.08702C3.94565 16.4352 2.85127 16.8891 2.04253 17.6951C1.2364 18.5025 0.782492 19.5968 0.782492 20.7393V29.2174H3.1304V22.3047C3.1304 22.0881 3.30519 21.9134 3.52173 21.9134C3.73827 21.9134 3.91306 22.0881 3.91306 22.3047V29.2174H9.39148V20.2178C9.39148 19.8369 9.54279 19.4717 9.81149 19.203C10.0815 18.9343 10.4454 18.7831 10.8263 18.7831H16.5659C17.2142 18.7831 17.7398 18.2574 17.7398 17.6092C17.7398 17.2975 17.6172 16.9988 17.3955 16.7797C17.175 16.5592 16.8762 16.4352 16.5658 16.4352ZM4.95645 7.45763C5.33082 7.35851 5.72475 7.30503 6.13041 7.30503C8.51876 7.30503 10.4805 9.14148 10.6788 11.4788H26.4789C26.6955 11.4788 26.8703 11.6535 26.8703 11.8701C26.8703 12.0866 26.6955 12.2614 26.4789 12.2614H10.6788C10.6397 12.7179 10.534 13.1561 10.3697 13.5656H26.479C26.6955 13.5656 26.8703 13.7404 26.8703 13.9569C26.8703 14.1735 26.6956 14.3482 26.479 14.3482H9.96397C9.63004 14.8634 9.19437 15.3082 8.68566 15.6525H26.479C26.6955 15.6525 26.8703 15.8273 26.8703 16.0438C26.8703 16.2603 26.6955 16.4351 26.479 16.4351H18.1308C18.3839 16.7716 18.5221 17.1838 18.5221 17.609C18.5221 17.6533 18.5208 17.6963 18.5182 17.7394H26.479C26.6956 17.7394 26.8704 17.9142 26.8704 18.1307C26.8704 18.3472 26.6956 18.522 26.479 18.522H18.2965C17.9678 19.1428 17.3156 19.5654 16.5655 19.5654H10.826C10.6538 19.5654 10.4869 19.6345 10.3642 19.7558C10.2416 19.8784 10.1738 20.0441 10.1738 20.2176V21.9131H27.5223C27.6958 21.9131 27.8615 21.844 27.9841 21.7227C28.1067 21.6001 28.1745 21.4345 28.1745 21.261V2.87049H4.95622L4.95645 7.45763ZM9.91327 11.8701C9.91327 9.78194 8.21886 8.0877 6.13054 8.0877C4.04349 8.0877 2.34781 9.78197 2.34781 11.8701C2.34781 13.957 4.04353 15.6525 6.13054 15.6525C8.21889 15.6525 9.91327 13.9569 9.91327 11.8701ZM4.04349 2.08787H29.0881C29.1598 2.08787 29.2185 2.02918 29.2185 1.95744V0.914009C29.2185 0.842274 29.1598 0.783581 29.0881 0.783581H4.04349C3.97175 0.783581 3.91305 0.842274 3.91305 0.914009V1.95744C3.91305 2.02918 3.97175 2.08787 4.04349 2.08787ZM20.8704 5.51034L17.886 8.49456C17.7751 8.60542 17.6094 8.63933 17.4633 8.58064L15.071 7.62329L12.1205 10.0832C11.9548 10.2214 11.707 10.1993 11.5687 10.0336C11.4305 9.86798 11.4527 9.62146 11.6183 9.48322L14.7489 6.87464C14.8598 6.78203 15.0111 6.75855 15.1454 6.81203L17.5142 7.76024L20.3161 4.95862H18.3099C18.0934 4.95862 17.9186 4.78385 17.9186 4.56733C17.9186 4.35082 18.0934 4.17603 18.3099 4.17603H21.2605C21.3648 4.17603 21.464 4.21646 21.537 4.29081C21.6101 4.36385 21.6518 4.46298 21.6518 4.56732V7.51892C21.6518 7.73543 21.477 7.91022 21.2605 7.91022C21.0439 7.91022 20.8691 7.73544 20.8691 7.51892V5.51292L20.8704 5.51034Z" fill="white"/>
</svg>
