<svg width="23" height="30" viewBox="0 0 23 30" fill="none" xmlns="http://www.w3.org/2000/svg">
<path d="M2.47069 22.7952C2.36288 22.7952 2.25507 22.7718 2.15663 22.7202L0.380059 21.8202C0.0378797 21.6468 -0.0980801 21.2296 0.0753795 20.8874L4.01767 13.1015C4.19111 12.7593 4.60831 12.6234 4.95049 12.7968L6.72705 13.6968C7.06923 13.8702 7.20519 14.2875 7.03173 14.6296L3.08944 22.4155C3.00507 22.5796 2.86444 22.7015 2.6863 22.7624C2.61599 22.7858 2.54569 22.7952 2.47069 22.7952ZM4.64101 13.1859C4.55663 13.1859 4.47695 13.2328 4.43476 13.3125L0.487969 21.0984C0.431719 21.2109 0.473906 21.3515 0.591093 21.4077L2.36766 22.3077C2.42391 22.3358 2.48485 22.3405 2.54578 22.3218C2.60672 22.303 2.6536 22.2608 2.68172 22.2046L6.62401 14.4187C6.65214 14.3625 6.65682 14.3015 6.63807 14.2406C6.61932 14.1796 6.57714 14.1328 6.52089 14.1047L4.74432 13.2047C4.71151 13.1953 4.67382 13.1859 4.64101 13.1859Z" fill="white"/>
<path d="M20.5154 22.6686C20.2576 22.6686 20.0091 22.5233 19.8919 22.2749L16.142 14.4467C16.0623 14.2779 16.0529 14.0904 16.1138 13.917C16.1748 13.7436 16.3013 13.6029 16.4654 13.5233L18.2654 12.6608C18.4341 12.5811 18.6216 12.5717 18.7951 12.6326C18.9685 12.6936 19.1091 12.8201 19.1888 12.9889L22.9388 20.8171C23.1029 21.1592 22.9576 21.5764 22.6154 21.7405L20.8154 22.603C20.717 22.6452 20.6138 22.6686 20.5154 22.6686ZM18.5607 13.0545C18.5279 13.0545 18.4951 13.0639 18.4623 13.078L16.6623 13.9405C16.606 13.9686 16.5638 14.0155 16.5451 14.0717C16.5263 14.128 16.5263 14.1936 16.5545 14.2498L20.3044 22.078C20.3607 22.1905 20.4966 22.2421 20.6138 22.1858L22.4138 21.3233C22.5263 21.2671 22.5779 21.1312 22.5216 21.014L18.7716 13.1858C18.7435 13.1295 18.6966 13.0874 18.6404 13.0686C18.6122 13.0592 18.5888 13.0545 18.5607 13.0545Z" fill="white"/>
<path d="M18.5041 25.8375C18.176 25.8375 17.8525 25.7297 17.5947 25.5375L13.0806 22.2234C12.9775 22.1484 12.9541 22.0031 13.0291 21.9C13.1041 21.7969 13.2494 21.7734 13.3525 21.8484L17.8666 25.1625C18.2885 25.4766 18.9354 25.4156 19.301 25.0219C19.4931 24.8109 19.5963 24.5344 19.5822 24.2437C19.5681 23.9531 19.4416 23.6859 19.226 23.4937L13.0103 17.8829C12.6493 17.5594 12.2415 17.3485 11.829 17.2782C11.3697 17.1938 10.9853 17.2641 10.6853 17.4844C10.1181 17.8922 9.99153 18.7032 9.99153 18.7126C9.96809 19.411 9.5181 20.0532 8.79621 20.3954C8.09779 20.7282 7.30558 20.6907 6.78997 20.2969C6.6259 20.1657 6.57903 19.936 6.67278 19.7485C6.92122 19.2469 7.07592 18.5626 7.13214 17.7095C7.17433 17.0157 7.46964 16.3501 7.9665 15.8391C8.13056 15.6704 8.28993 15.5204 8.43993 15.3938C8.4493 15.3844 8.45868 15.3798 8.46805 15.3751C10.9337 13.3126 13.7555 14.1938 15.443 14.7188C16.0149 14.8969 16.5071 15.0516 16.7462 15.0141C16.8681 14.9954 16.9899 15.0844 17.0087 15.211C17.0274 15.3376 16.9384 15.4548 16.8118 15.4735C16.4696 15.5204 15.9774 15.3704 15.3024 15.1594C13.5962 14.6251 11.0134 13.8188 8.73516 15.7454C8.72578 15.7547 8.71641 15.7594 8.70703 15.7641C8.57578 15.8766 8.43516 16.0079 8.28985 16.1579C7.87267 16.5891 7.61953 17.1516 7.58671 17.7375C7.52578 18.6516 7.35703 19.3969 7.08047 19.9547C7.4461 20.2172 8.0461 20.2407 8.59453 19.9782C9.16171 19.711 9.5086 19.2188 9.53203 18.6703C9.54141 18.6047 9.68672 17.6391 10.4133 17.1141C10.8211 16.8188 11.3273 16.7203 11.9133 16.8282C12.4101 16.9125 12.8976 17.161 13.3195 17.5453L19.5352 23.1562C19.8446 23.4328 20.0227 23.8171 20.0415 24.2296C20.0602 24.6421 19.9196 25.0406 19.6383 25.3453C19.343 25.6546 18.9306 25.8375 18.5041 25.8375Z" fill="white"/>
<path d="M16.7892 27.6843C16.4189 27.6843 16.0392 27.5577 15.7251 27.314L11.7126 24.2438C11.6095 24.1688 11.5908 24.0235 11.6705 23.9203C11.7455 23.8172 11.8955 23.7985 11.9939 23.8782L16.0064 26.9483C16.3532 27.2155 16.7986 27.2952 17.1595 27.1593C17.4736 27.0421 17.7033 26.8077 17.7876 26.5265C17.8861 26.2077 17.8017 25.8515 17.5439 25.4952C17.4689 25.3921 17.4923 25.2468 17.6001 25.1718C17.7033 25.0968 17.8486 25.1202 17.9236 25.228C18.2611 25.7015 18.3689 26.2124 18.2329 26.6624C18.1064 27.0843 17.7736 27.4265 17.3236 27.5952C17.1501 27.6515 16.972 27.6843 16.7892 27.6843Z" fill="white"/>
<path d="M14.9393 29.0343C14.644 29.0343 14.344 28.9406 14.0861 28.7578L11.8221 27.1453C11.719 27.0703 11.6955 26.9249 11.7705 26.8218C11.8455 26.7187 11.9908 26.6953 12.0939 26.7703L14.358 28.3828C14.6768 28.6078 15.0846 28.6359 15.3799 28.4531C15.6189 28.3031 15.7736 28.1015 15.8205 27.8812C15.8627 27.6797 15.8158 27.4734 15.6752 27.2578C15.6049 27.15 15.633 27.0094 15.7408 26.939C15.8486 26.8687 15.9893 26.8969 16.0596 27.0047C16.2658 27.3187 16.3408 27.6562 16.2705 27.9797C16.1955 28.3218 15.9658 28.6312 15.6236 28.8468C15.4174 28.9687 15.1783 29.0343 14.9393 29.0343Z" fill="white"/>
<path d="M3.87657 26.1093C3.4875 26.1093 3.10315 25.964 2.80783 25.6687C2.52189 25.3827 2.36719 25.003 2.36719 24.5999C2.36719 24.1968 2.52656 23.8171 2.80783 23.5312L4.0125 22.3265C4.58436 21.7546 5.57814 21.7546 6.15 22.3265C6.74064 22.9171 6.74064 23.8733 6.15 24.464L4.94532 25.6687C4.65001 25.9593 4.26096 26.1093 3.87657 26.1093ZM5.07657 22.3452C4.79532 22.3452 4.53282 22.453 4.33593 22.6546L3.13126 23.8592C2.93438 24.0561 2.8219 24.3233 2.8219 24.5999C2.8219 24.8811 2.92971 25.1436 3.13126 25.3405C3.53907 25.7483 4.20468 25.7483 4.61718 25.3405L5.82186 24.1358C6.22968 23.728 6.22968 23.0577 5.82186 22.6499C5.6203 22.453 5.35782 22.3452 5.07657 22.3452Z" fill="white"/>
<path d="M4.1723 22.7202C4.11137 22.7202 4.05043 22.6968 4.00824 22.6499L3.10356 21.7171C3.0145 21.6234 3.01919 21.478 3.10825 21.389C3.202 21.2999 3.34731 21.3046 3.43639 21.3937L4.34107 22.3265C4.43013 22.4202 4.42544 22.5655 4.33638 22.6546C4.2895 22.6968 4.22855 22.7202 4.1723 22.7202Z" fill="white"/>
<path d="M5.7454 27.8064C5.53447 27.8064 5.32354 27.7596 5.12666 27.6658C4.3673 27.3002 4.00634 26.3252 4.35791 25.5752C4.41416 25.458 4.55009 25.4111 4.66259 25.4627C4.77977 25.5189 4.82665 25.6549 4.77509 25.7673C4.55477 26.2361 4.74696 26.9627 5.32822 27.2439C5.73136 27.4361 6.2329 27.3236 6.57979 26.9673L7.44229 26.072C7.69073 25.8142 7.81729 25.4392 7.77511 25.0689C7.73761 24.7361 7.57355 24.4595 7.31575 24.2908C7.12825 24.1689 6.64075 23.9392 6.14389 24.4689C6.05483 24.5626 5.90952 24.5673 5.81575 24.4783C5.72199 24.3892 5.71732 24.2439 5.80638 24.1501C6.30795 23.6158 6.98295 23.5173 7.56419 23.9017C7.93451 24.1454 8.17826 24.5485 8.22983 25.0126C8.28608 25.5142 8.11265 26.0298 7.77047 26.386L6.90798 27.2814C6.58923 27.6282 6.16258 27.8064 5.7454 27.8064Z" fill="white"/>
<path d="M8.03337 29.1657C7.85525 29.1657 7.67712 29.1329 7.50369 29.0719C6.62712 28.7485 6.1537 27.961 6.37401 27.2016C6.41151 27.0797 6.53808 27.0094 6.65995 27.0469C6.78182 27.0844 6.85214 27.211 6.81464 27.3329C6.65995 27.8532 7.0162 28.4063 7.65838 28.6407C8.09902 28.8047 8.60524 28.6594 8.90995 28.275L9.46777 27.586C9.83341 27.1313 9.81463 26.4703 9.42558 26.1141C8.90527 25.6313 8.01934 25.8329 8.00995 25.8329C7.88807 25.861 7.76151 25.786 7.73338 25.6641C7.70526 25.5422 7.78026 25.4157 7.90213 25.3875C7.94901 25.3782 9.03181 25.125 9.73495 25.7766C10.3068 26.3063 10.3443 27.2297 9.81932 27.8766L9.26151 28.5657C8.96151 28.95 8.50215 29.1657 8.03337 29.1657Z" fill="white"/>
<path d="M9.95583 30C9.7027 30 9.45897 29.9297 9.24333 29.7844C8.84958 29.5172 8.63865 29.0719 8.67615 28.5937C8.68552 28.4672 8.79334 28.3734 8.92458 28.3828C9.05115 28.3922 9.1449 28.5047 9.13552 28.6312C9.11208 28.9406 9.24802 29.2312 9.50116 29.4C9.83398 29.625 10.3262 29.5593 10.6402 29.2406L10.9918 28.889C11.2824 28.5984 11.3621 28.1718 11.1887 27.8203C10.8277 27.0937 10.0309 27.225 9.99803 27.2296C9.87616 27.2531 9.75428 27.1687 9.73085 27.0421C9.70741 26.9156 9.79178 26.7984 9.91366 26.775C10.3168 26.7 11.1887 26.7796 11.6012 27.614C11.859 28.139 11.7465 28.7812 11.3199 29.2125L10.9683 29.564C10.6824 29.8546 10.3168 30 9.95583 30Z" fill="white"/>
<path d="M12.1328 29.6859C11.7344 29.6859 11.3313 29.5265 10.9985 29.2312C10.9047 29.1469 10.8953 29.0015 10.9797 28.9031C11.0641 28.8093 11.2094 28.8 11.3079 28.8843C11.65 29.1937 12.0719 29.2968 12.4563 29.1703C12.8922 29.0297 13.211 28.6171 13.3281 28.0453C13.3563 27.9187 13.4735 27.839 13.6 27.8672C13.7266 27.8953 13.8063 28.0172 13.7781 28.139C13.6235 28.875 13.1922 29.4093 12.5969 29.6062C12.4516 29.6625 12.2922 29.6859 12.1328 29.6859Z" fill="white"/>
<path d="M8.59124 15.7968H8.57718L6.36468 15.6422C6.23812 15.6328 6.13968 15.525 6.14906 15.3984C6.15843 15.2718 6.27093 15.1781 6.39281 15.1828L8.6053 15.3375C8.73186 15.3468 8.8303 15.4547 8.82092 15.5812C8.81155 15.7031 8.71311 15.7968 8.59124 15.7968Z" fill="white"/>
<path d="M19.0819 23.2827C19.0209 23.2827 18.96 23.2593 18.9178 23.2124C18.8287 23.1234 18.8287 22.9734 18.9225 22.8843C19.3209 22.4952 19.5834 22.1061 19.7006 21.7311C19.7381 21.6093 19.8694 21.5436 19.9912 21.5811C20.1131 21.6186 20.1834 21.7499 20.1412 21.8718C20.0006 22.3264 19.7006 22.7764 19.2459 23.2218C19.1944 23.264 19.1381 23.2827 19.0819 23.2827Z" fill="white"/>
<path d="M2.47578 16.8984C2.34922 16.8984 2.24609 16.7953 2.24609 16.6687V0.229686C2.24609 0.103122 2.34922 0 2.47578 0H20.5366C20.6632 0 20.7663 0.103125 20.7663 0.229686V16.3312C20.7663 16.4578 20.6632 16.5609 20.5366 16.5609C20.4101 16.5609 20.307 16.4578 20.307 16.3312V0.459485H2.70539V16.6687C2.70539 16.7953 2.60234 16.8984 2.47578 16.8984Z" fill="white"/>
<path d="M11.5484 7.75776C9.889 7.75776 8.53906 6.40776 8.53906 4.74847C8.53906 3.08917 9.88906 1.73438 11.5484 1.73438C13.2077 1.73438 14.5576 3.08437 14.5576 4.74367C14.5576 6.40296 13.2077 7.75776 11.5484 7.75776ZM11.5484 2.19847C10.1421 2.19847 8.99836 3.34222 8.99836 4.74847C8.99836 6.15472 10.1421 7.29846 11.5484 7.29846C12.9546 7.29846 14.0983 6.15472 14.0983 4.74847C14.0983 3.34222 12.9546 2.19847 11.5484 2.19847Z" fill="white"/>
<path d="M11.2504 5.79847C11.1895 5.79847 11.1285 5.77503 11.0863 5.73284L10.266 4.91253C10.177 4.82346 10.177 4.67815 10.266 4.58439C10.3551 4.49062 10.5004 4.49532 10.5942 4.58439L11.241 5.23124L12.5535 3.75939C12.6379 3.66564 12.7832 3.65626 12.8817 3.74064C12.9754 3.82501 12.9848 3.97032 12.9004 4.06878L11.4285 5.72345C11.3864 5.77033 11.3254 5.79845 11.2645 5.79845L11.2504 5.79847Z" fill="white"/>
<path d="M19.0039 9.34237H4.3039C4.17734 9.34237 4.07422 9.23924 4.07422 9.11268C4.07422 8.98612 4.17734 8.883 4.3039 8.883H19.0039C19.1304 8.883 19.2336 8.98612 19.2336 9.11268C19.2382 9.23924 19.1351 9.34237 19.0039 9.34237Z" fill="white"/>
<path d="M16.9211 11.2077H6.23359C6.10703 11.2077 6.00391 11.1046 6.00391 10.978C6.00391 10.8515 6.10703 10.7484 6.23359 10.7484H16.9259C17.0524 10.7484 17.1556 10.8515 17.1556 10.978C17.1556 11.1046 17.0523 11.2077 16.9211 11.2077Z" fill="white"/>
</svg>
