<svg width="34" height="34" viewBox="0 0 34 34" fill="none" xmlns="http://www.w3.org/2000/svg">
<rect width="34" height="34" rx="17" fill="white"/>
<path d="M12.5149 23.9487L12.4366 24.4425H12.4366L12.5149 23.9487ZM9.0513 20.4851L9.54514 20.4069L9.0513 20.4851ZM23.9487 20.4851L24.4425 20.5634V20.5634L23.9487 20.4851ZM20.4851 23.9487L20.5634 24.4425V24.4425L20.4851 23.9487ZM23.5668 15.3664C23.4009 15.1456 23.0875 15.101 22.8667 15.2669C22.6459 15.4327 22.6013 15.7462 22.7672 15.967L23.167 15.6667L23.5668 15.3664ZM10.2328 15.967C10.3987 15.7462 10.3541 15.4327 10.1333 15.2669C9.91252 15.101 9.59909 15.1456 9.43325 15.3664L9.83303 15.6667L10.2328 15.967ZM17 9C17 8.72386 16.7761 8.5 16.5 8.5C16.2239 8.5 16 8.72386 16 9H16.5H17ZM13.5585 17.0227C13.3869 16.8063 13.0724 16.77 12.856 16.9415C12.6396 17.1131 12.6033 17.4276 12.7749 17.644L13.1667 17.3333L13.5585 17.0227ZM14.3315 18.8025L13.9397 19.1131V19.1131L14.3315 18.8025ZM18.6685 18.8025L18.2767 18.4918V18.4918L18.6685 18.8025ZM20.2251 17.644C20.3967 17.4276 20.3604 17.1131 20.144 16.9415C19.9276 16.77 19.6131 16.8063 19.4415 17.0227L19.8333 17.3333L20.2251 17.644ZM16.2911 20.6501L16.2124 21.1439H16.2124L16.2911 20.6501ZM16.7089 20.6501L16.7876 21.1439H16.7876L16.7089 20.6501ZM24 18.1667H23.5V19H24H24.5V18.1667H24ZM19 24V23.5H14V24V24.5H19V24ZM9 19H9.5V18.1667H9H8.5V19H9ZM14 24V23.5C13.2067 23.5 12.8683 23.4984 12.5931 23.4549L12.5149 23.9487L12.4366 24.4425C12.8092 24.5016 13.2449 24.5 14 24.5V24ZM9 19H8.5C8.5 19.7551 8.49845 20.1908 8.55745 20.5634L9.0513 20.4851L9.54514 20.4069C9.50155 20.1317 9.5 19.7933 9.5 19H9ZM12.5149 23.9487L12.5931 23.4549C11.0241 23.2064 9.79364 21.9759 9.54514 20.4069L9.0513 20.4851L8.55745 20.5634C8.87372 22.5602 10.4398 24.1263 12.4366 24.4425L12.5149 23.9487ZM24 19H23.5C23.5 19.7933 23.4984 20.1317 23.4549 20.4069L23.9487 20.4851L24.4425 20.5634C24.5016 20.1908 24.5 19.7551 24.5 19H24ZM19 24V24.5C19.7551 24.5 20.1908 24.5016 20.5634 24.4425L20.4851 23.9487L20.4069 23.4549C20.1317 23.4984 19.7933 23.5 19 23.5V24ZM23.9487 20.4851L23.4549 20.4069C23.2064 21.9759 21.9759 23.2064 20.4069 23.4549L20.4851 23.9487L20.5634 24.4425C22.5602 24.1263 24.1263 22.5602 24.4425 20.5634L23.9487 20.4851ZM24 18.1667H24.5C24.5 17.1167 24.1526 16.1464 23.5668 15.3664L23.167 15.6667L22.7672 15.967C23.2275 16.5797 23.5 17.3406 23.5 18.1667H24ZM9 18.1667H9.5C9.5 17.3406 9.77254 16.5797 10.2328 15.967L9.83303 15.6667L9.43325 15.3664C8.84737 16.1464 8.5 17.1167 8.5 18.1667H9ZM16.5 9H16V19.8333H16.5H17V9H16.5ZM13.1667 17.3333L12.7749 17.644L13.9397 19.1131L14.3315 18.8025L14.7233 18.4918L13.5585 17.0227L13.1667 17.3333ZM18.6685 18.8025L19.0602 19.1131L20.2251 17.644L19.8333 17.3333L19.4415 17.0227L18.2767 18.4918L18.6685 18.8025ZM14.3315 18.8025L13.9397 19.1131C14.3966 19.6894 14.7654 20.1556 15.0932 20.4847C15.4232 20.816 15.7737 21.074 16.2124 21.1439L16.2911 20.6501L16.3698 20.1563C16.2424 20.136 16.0776 20.056 15.8016 19.7789C15.5234 19.4996 15.1954 19.0872 14.7233 18.4918L14.3315 18.8025ZM18.6685 18.8025L18.2767 18.4918C17.8046 19.0872 17.4766 19.4996 17.1984 19.7789C16.9224 20.056 16.7576 20.136 16.6302 20.1563L16.7089 20.6501L16.7876 21.1439C17.2263 21.074 17.5768 20.816 17.9068 20.4847C18.2346 20.1556 18.6034 19.6894 19.0602 19.1131L18.6685 18.8025ZM16.2911 20.6501L16.2124 21.1439C16.3077 21.159 16.4038 21.1667 16.5 21.1667V20.6667V20.1667C16.4567 20.1667 16.4132 20.1632 16.3698 20.1563L16.2911 20.6501ZM16.5 20.6667V21.1667C16.5962 21.1667 16.6923 21.159 16.7876 21.1439L16.7089 20.6501L16.6302 20.1563C16.5868 20.1632 16.5433 20.1667 16.5 20.1667V20.6667ZM16.5 19.8333H16V20.6667H16.5H17V19.8333H16.5Z" fill="#0C6C40"/>
</svg>
