<svg width="34" height="34" viewBox="0 0 34 34" fill="none" xmlns="http://www.w3.org/2000/svg">
<rect x="0.5" y="0.5" width="33" height="33" rx="16.5" stroke="#040505"/>
<path d="M11 15.0048C11 13.4082 11 12.6098 11.2099 11.9637C11.6342 10.658 12.658 9.6342 13.9637 9.20993C14.6098 9 15.4082 9 17.0048 9C18.6015 9 19.3999 9 20.0459 9.20993C21.3517 9.6342 22.3755 10.658 22.7998 11.9637C23.0097 12.6098 23.0097 13.4082 23.0097 15.0048V21.342C23.0097 22.9866 23.0097 23.8089 22.7164 24.2437C22.358 24.775 21.7334 25.0623 21.0968 24.9886C20.5758 24.9283 19.9514 24.3932 18.7028 23.3229C18.1531 22.8518 17.8783 22.6162 17.5764 22.5095C17.2066 22.3789 16.8031 22.3789 16.4333 22.5095C16.1314 22.6162 15.8566 22.8518 15.3069 23.3229C14.0583 24.3932 13.4339 24.9283 12.9129 24.9886C12.2763 25.0623 11.6517 24.775 11.2933 24.2437C11 23.8089 11 22.9866 11 21.342V15.0048Z" stroke="#040505"/>
</svg>
