<svg width="169" height="169" viewBox="0 0 169 169" fill="none" xmlns="http://www.w3.org/2000/svg">
<path d="M161.425 80.8333H32.0918V145.5C32.0918 169.75 40.1751 177.833 64.4251 177.833H129.092C153.342 177.833 161.425 169.75 161.425 145.5V80.8333Z" fill="#52AE84" stroke="#F0E2D7" stroke-miterlimit="10" stroke-linecap="round" stroke-linejoin="round"/>
<path d="M173.79 56.5832V64.6665C173.79 73.5582 169.506 80.8332 157.624 80.8332H36.3737C24.0062 80.8332 20.207 73.5582 20.207 64.6665V56.5832C20.207 47.6915 24.0062 40.4165 36.3737 40.4165H157.624C169.506 40.4165 173.79 47.6915 173.79 56.5832Z" fill="#52AE84" stroke="#F0E2D7" stroke-miterlimit="10" stroke-linecap="round" stroke-linejoin="round"/>
<path d="M94.0892 40.4166H49.4692C46.7208 37.4257 46.8017 32.8182 49.7117 29.9082L61.19 18.4299C64.1808 15.4391 69.1117 15.4391 72.1025 18.4299L94.0892 40.4166Z" fill="#52AE84" stroke="#52AE84" stroke-width="1.5" stroke-miterlimit="10" stroke-linecap="round" stroke-linejoin="round"/>
<path d="M144.45 40.4166H99.8301L121.817 18.4299C124.808 15.4391 129.738 15.4391 132.729 18.4299L144.208 29.9082C147.118 32.8182 147.198 37.4257 144.45 40.4166Z" fill="#52AE84" stroke="#52AE84" stroke-width="1.5" stroke-miterlimit="10" stroke-linecap="round" stroke-linejoin="round"/>
<path d="M72.2656 80.8335V122.382C72.2656 128.849 79.379 132.648 84.7948 129.172L92.3931 124.16C95.1415 122.382 98.6173 122.382 101.285 124.16L108.479 129.01C113.814 132.567 121.008 128.768 121.008 122.301V80.8335H72.2656Z" fill="#F0E2D7" stroke="#F0E2D7" stroke-miterlimit="10" stroke-linecap="round" stroke-linejoin="round"/>
</svg>
