<svg width="34" height="30" viewBox="0 0 34 30" fill="none" xmlns="http://www.w3.org/2000/svg">
<path d="M30.4853 23.4867H14.545V15.302C14.545 14.8449 14.1424 14.457 13.6666 14.457H5.84302C5.39254 14.457 4.99801 14.8515 4.99801 15.302V23.4867H3.25737C1.46209 23.4867 0 24.9474 0 26.7427C0 28.538 1.46073 30.0001 3.25737 30.0001H30.4838C32.2791 30.0001 33.7412 28.5393 33.7412 26.7427C33.7412 24.9474 32.2804 23.4867 30.4838 23.4867H30.4853ZM10.8945 16.3417C10.8732 16.5283 10.7012 16.6975 10.5306 16.6975H9.01392C8.84599 16.6975 8.68606 16.5389 8.68606 16.3697V15.0089H10.8918L10.8932 16.3416L10.8945 16.3417ZM5.51656 15.3021C5.51656 15.1341 5.67516 14.9742 5.84443 14.9742H8.17016V16.3696C8.17016 16.8201 8.56465 17.2146 9.01517 17.2146H10.5319C10.965 17.2146 11.3596 16.8495 11.4102 16.3696V14.9742H13.668C13.8612 14.9742 14.0291 15.1275 14.0291 15.3021V23.4867H5.51664L5.51656 15.3021ZM30.4853 29.4829H3.25887C1.74747 29.4829 0.518652 28.254 0.518652 26.7427C0.518652 25.2326 1.7475 24.0024 3.25887 24.0024H30.4853C31.9967 24.0024 33.2255 25.2313 33.2255 26.7427C33.2255 28.254 31.9967 29.4829 30.4853 29.4829Z" fill="white"/>
<path d="M3.29528 25.1755C2.43028 25.1755 1.72656 25.8793 1.72656 26.7443C1.72656 27.6093 2.43028 28.313 3.29528 28.313C4.16028 28.313 4.864 27.6093 4.864 26.7443C4.864 25.8793 4.16028 25.1755 3.29528 25.1755ZM3.29528 27.7958C2.71552 27.7958 2.24371 27.324 2.24371 26.7443C2.24371 26.1645 2.71552 25.6927 3.29528 25.6927C3.87504 25.6927 4.34685 26.1645 4.34685 26.7443C4.34685 27.324 3.87504 27.7958 3.29528 27.7958Z" fill="white"/>
<path d="M10.0843 25.1755C9.21934 25.1755 8.51562 25.8793 8.51562 26.7443C8.51562 27.6093 9.21934 28.313 10.0843 28.313C10.9493 28.313 11.6531 27.6093 11.6531 26.7443C11.6531 25.8793 10.9493 25.1755 10.0843 25.1755ZM10.0843 27.7958C9.50458 27.7958 9.03278 27.324 9.03278 26.7443C9.03278 26.1645 9.50458 25.6927 10.0843 25.6927C10.6641 25.6927 11.1359 26.1645 11.1359 26.7443C11.1359 27.324 10.6641 27.7958 10.0843 27.7958Z" fill="white"/>
<path d="M16.8734 25.1755C16.0084 25.1755 15.3047 25.8793 15.3047 26.7443C15.3047 27.6093 16.0084 28.313 16.8734 28.313C17.7384 28.313 18.4421 27.6093 18.4421 26.7443C18.4421 25.8793 17.7384 25.1755 16.8734 25.1755ZM16.8734 27.7958C16.2936 27.7958 15.8218 27.324 15.8218 26.7443C15.8218 26.1645 16.2936 25.6927 16.8734 25.6927C17.4532 25.6927 17.925 26.1645 17.925 26.7443C17.925 27.324 17.4532 27.7958 16.8734 27.7958Z" fill="white"/>
<path d="M23.6625 25.1755C22.7975 25.1755 22.0938 25.8793 22.0938 26.7443C22.0938 27.6093 22.7975 28.313 23.6625 28.313C24.5275 28.313 25.2312 27.6093 25.2312 26.7443C25.2312 25.8793 24.5275 25.1755 23.6625 25.1755ZM23.6625 27.7958C23.0827 27.7958 22.6109 27.324 22.6109 26.7443C22.6109 26.1645 23.0827 25.6927 23.6625 25.6927C24.2422 25.6927 24.714 26.1645 24.714 26.7443C24.714 27.324 24.2422 27.7958 23.6625 27.7958Z" fill="white"/>
<path d="M30.4515 25.1755C29.5865 25.1755 28.8828 25.8793 28.8828 26.7443C28.8828 27.6093 29.5865 28.313 30.4515 28.313C31.3165 28.313 32.0202 27.6093 32.0202 26.7443C32.0202 25.8793 31.3165 25.1755 30.4515 25.1755ZM30.4515 27.7958C29.8718 27.7958 29.4 27.324 29.4 26.7443C29.4 26.1645 29.8718 25.6927 30.4515 25.6927C31.0313 25.6927 31.5031 26.1645 31.5031 26.7443C31.5031 27.324 31.0313 27.7958 30.4515 27.7958Z" fill="white"/>
<path d="M18.1816 13.3934C18.3202 13.7612 18.68 14.0091 19.0786 14.0091C19.1772 14.0091 19.3091 13.9838 19.4397 13.8945V19.788C19.4397 20.4024 19.9395 20.9022 20.554 20.9022H27.8723C28.4867 20.9022 28.9865 20.4024 28.9865 19.788L28.9851 13.9518C29.1051 14.0224 29.2237 14.0438 29.313 14.0438C29.7115 14.0438 30.0714 13.7959 30.2126 13.42L31.7294 8.93774C31.9106 8.39261 31.6734 7.81285 31.1856 7.59161L25.9516 4.97532V3.11874H25.056L25.0573 0H24.5402V3.11874H23.7818L23.7832 0H23.266V3.11874H22.3704V4.97931H22.425L17.214 7.55296C16.7182 7.7782 16.4809 8.35931 16.6622 8.9044L18.1816 13.3934ZM18.712 8.94995L22.7743 6.90278C22.9196 7.3506 23.3314 7.66781 23.8339 7.66781H24.4883C25.0014 7.66781 25.4186 7.33727 25.5559 6.87347L29.6516 8.96862C29.6676 8.97928 29.6809 8.99927 29.6876 8.98195L28.7586 11.6755C28.588 11.4809 28.3414 11.3556 28.0709 11.3556H20.2821C20.0222 11.3556 19.7916 11.4769 19.6357 11.6622L18.704 8.9766C18.7067 8.96727 18.72 8.94461 18.7094 8.94995L18.712 8.94995ZM23.2315 4.97945H25.0921V6.54817C25.0921 6.8867 24.8269 7.15192 24.4884 7.15192H23.8339C23.4954 7.15192 23.2302 6.88669 23.2302 6.54817V4.97945H23.2315ZM25.2987 11.9074V13.2682C25.2987 13.4428 25.1294 13.5961 24.9375 13.5961H23.4208C23.2529 13.5961 23.0929 13.4375 23.0929 13.2682V11.9074H25.2987ZM28.4708 19.7884C28.4708 20.1176 28.2029 20.3855 27.8737 20.3855H20.5554C20.2262 20.3855 19.9583 20.1176 19.9583 19.7884V12.1995C19.9583 12.0196 20.1049 11.8716 20.2861 11.8716H22.5772V13.2671C22.5772 13.7175 22.9717 14.1121 23.4222 14.1121H24.9389C25.4147 14.1121 25.8172 13.7256 25.8172 13.2671V11.8716H28.075C28.2962 11.8716 28.4535 12.0569 28.4708 12.1995L28.4708 19.7884ZM31.2416 8.77424L29.7276 13.247C29.6663 13.4122 29.4957 13.5269 29.3144 13.5269C29.1558 13.5269 29.0719 13.207 29.0519 13.119C28.9919 12.7872 29.0226 12.454 29.1452 12.1461L30.1808 9.14461C30.2501 8.93669 30.1461 8.67546 29.9155 8.52353L25.6107 6.32043V5.38081L30.9657 8.05841C31.2203 8.17436 31.339 8.48234 31.2416 8.77424ZM22.8864 3.63616H25.4361V4.46384H22.8864V3.63616ZM17.4351 8.01985L22.7145 5.41291V6.35386L18.4523 8.50367C18.2457 8.64095 18.143 8.90219 18.2137 9.11277L19.2519 12.1222C19.3706 12.4181 19.4012 12.75 19.3426 13.0725C19.3212 13.1712 19.2373 13.491 19.0787 13.491C18.8974 13.491 18.7282 13.3764 18.6682 13.2191L17.1528 8.73958C17.0555 8.44637 17.1741 8.1385 17.4353 8.01853L17.4351 8.01985Z" fill="white"/>
</svg>
