<svg width="11" height="14" viewBox="0 0 11 14" fill="none" xmlns="http://www.w3.org/2000/svg">
<path d="M7.17208 12.0735L6.77864 11.7649V11.7649L7.17208 12.0735ZM3.7301 12.0735L3.33665 12.382L3.7301 12.0735ZM5.45109 13.5V13V13.5ZM10.4022 5.8278H9.90218C9.90218 6.57697 9.51052 7.58572 8.88798 8.68633C8.27651 9.76737 7.48585 10.8631 6.77864 11.7649L7.17208 12.0735L7.56553 12.382C8.28779 11.461 9.11218 10.3211 9.75839 9.17866C10.3935 8.05577 10.9022 6.85312 10.9022 5.8278H10.4022ZM3.7301 12.0735L4.12355 11.7649C3.41633 10.8631 2.62567 9.76737 2.0142 8.68633C1.39166 7.58572 1 6.57697 1 5.8278H0.5H0C0 6.85312 0.50865 8.05577 1.14379 9.17866C1.79 10.3211 2.61439 11.461 3.33665 12.382L3.7301 12.0735ZM0.5 5.8278H1C1 3.12632 3.02672 1 5.45109 1V0.5V0C2.40664 0 0 2.64436 0 5.8278H0.5ZM5.45109 0.5V1C7.87546 1 9.90218 3.12632 9.90218 5.8278H10.4022H10.9022C10.9022 2.64436 8.49554 0 5.45109 0V0.5ZM7.17208 12.0735L6.77864 11.7649C6.39478 12.2544 6.14469 12.5706 5.9216 12.7733C5.71992 12.9565 5.59062 13 5.45109 13V13.5V14C5.91388 14 6.27219 13.8058 6.59398 13.5135C6.89436 13.2406 7.2036 12.8435 7.56553 12.382L7.17208 12.0735ZM3.7301 12.0735L3.33665 12.382C3.69858 12.8435 4.00782 13.2406 4.3082 13.5135C4.62999 13.8058 4.9883 14 5.45109 14V13.5V13C5.31156 13 5.18226 12.9565 4.98058 12.7733C4.75749 12.5706 4.5074 12.2544 4.12355 11.7649L3.7301 12.0735ZM3.59443 6.06998H3.09443C3.09443 7.37152 4.14954 8.42664 5.45109 8.42664V7.92664V7.42664C4.70183 7.42664 4.09443 6.81924 4.09443 6.06998H3.59443ZM5.45109 7.92664V8.42664C6.75264 8.42664 7.80775 7.37152 7.80775 6.06998H7.30775H6.80775C6.80775 6.81924 6.20035 7.42664 5.45109 7.42664V7.92664ZM7.30775 6.06998H7.80775C7.80775 4.76843 6.75264 3.71332 5.45109 3.71332V4.21332V4.71332C6.20035 4.71332 6.80775 5.32071 6.80775 6.06998H7.30775ZM5.45109 4.21332V3.71332C4.14954 3.71332 3.09443 4.76843 3.09443 6.06998H3.59443H4.09443C4.09443 5.32071 4.70183 4.71332 5.45109 4.71332V4.21332Z" fill="#A09790"/>
</svg>
