<svg width="34" height="34" viewBox="0 0 34 34" fill="none" xmlns="http://www.w3.org/2000/svg">
<rect x="0.5" y="0.5" width="33" height="33" rx="16.5" stroke="#040505"/>
<path d="M10.5553 8.58902C10.6182 8.52615 10.6496 8.49471 10.6773 8.46926C11.3582 7.84358 12.4049 7.84358 13.0858 8.46926C13.1135 8.49471 13.1449 8.52615 13.2078 8.58902L14.5055 9.8867C15.2193 10.6005 15.4234 11.6784 15.02 12.6037C14.6167 13.529 14.8208 14.6069 15.5346 15.3207L17.6676 17.4537C18.3813 18.1674 19.4593 18.3716 20.3846 17.9682C21.3099 17.5649 22.3878 17.769 23.1016 18.4828L24.3993 19.7805C24.4621 19.8433 24.4936 19.8748 24.519 19.9025C25.1447 20.5834 25.1447 21.63 24.519 22.311C24.4936 22.3387 24.4621 22.3701 24.3993 22.433L23.6105 23.2218C22.9681 23.8641 22.0422 24.1337 21.1554 23.9367C15.1132 22.594 10.3943 17.8751 9.0516 11.8329C8.85454 10.9461 9.12419 10.0201 9.76653 9.37779L10.5553 8.58902Z" stroke="#040505"/>
</svg>
