<svg width="32" height="30" viewBox="0 0 32 30" fill="none" xmlns="http://www.w3.org/2000/svg">
<path d="M31.6153 25.1088C31.813 25.1088 31.9717 24.9501 31.9717 24.7524V13.8033C31.9703 12.9387 31.2714 12.2384 30.4082 12.2384H23.5512C22.688 12.2384 21.9877 12.9387 21.9863 13.8033V28.435C21.9877 29.2996 22.6881 29.9999 23.5512 29.9999H30.4082C31.2714 29.9999 31.9703 29.2996 31.9717 28.435V26.4635C31.9717 26.2672 31.813 26.1071 31.6153 26.1071C31.419 26.1071 31.2588 26.2672 31.2588 26.4635V28.435C31.2588 28.9056 30.8774 29.2871 30.4082 29.2871H23.5512C23.0807 29.2871 22.7006 28.9056 22.6992 28.435V18.6696H31.2591V24.7524C31.2591 24.9501 31.419 25.1088 31.6153 25.1088ZM22.6989 17.9568V13.8037C22.7003 13.3331 23.0804 12.9516 23.551 12.9516H30.4079C30.8771 12.9516 31.2586 13.3331 31.2586 13.8037V17.9568H22.6989Z" fill="white"/>
<path d="M23.5146 14.6542C23.3183 14.6542 23.1582 14.8143 23.1582 15.0106V15.8655C23.1582 16.0632 23.3183 16.2219 23.5146 16.2219C23.7123 16.2219 23.8711 16.0632 23.8711 15.8655V15.0106C23.8711 14.8143 23.7123 14.6542 23.5146 14.6542Z" fill="white"/>
<path d="M23.1367 19.6441V21.4736C23.1367 21.6713 23.2968 21.83 23.4931 21.83C23.6895 21.83 23.8496 21.6713 23.8496 21.4736V19.6441C23.8496 19.4478 23.6895 19.2877 23.4931 19.2877C23.2968 19.2877 23.1367 19.4478 23.1367 19.6441Z" fill="white"/>
<path d="M20.8647 19.2514H19.5699V15.6955C19.5726 15.2973 19.4153 14.9144 19.1341 14.6331C18.8542 14.3505 18.4713 14.1918 18.0731 14.1918C17.6749 14.1918 17.2934 14.3505 17.0122 14.6331C16.7309 14.9144 16.575 15.2973 16.5764 15.6955V16.3707C16.5764 16.5684 16.7365 16.7271 16.9328 16.7271C17.1291 16.7271 17.2892 16.5684 17.2892 16.3707V15.6955C17.2878 15.4866 17.37 15.2861 17.5176 15.1385C17.6638 14.9896 17.8643 14.906 18.0731 14.906C18.2819 14.906 18.4824 14.9896 18.63 15.1385C18.7762 15.2861 18.8583 15.4866 18.857 15.6955V19.2514H8.66961V19.1456H8.69467C9.29892 19.1442 9.78761 18.6555 9.789 18.0512V17.117H10.0104C10.2067 17.117 10.3668 16.9583 10.3668 16.7606C10.3668 16.5643 10.2067 16.4042 10.0104 16.4042H9.789V16.2218C9.789 16.0255 9.62889 15.8653 9.43258 15.8653H5.02894C4.82567 15.8723 4.66279 16.0352 4.6558 16.2385V16.4042H4.43721H4.4386C4.2409 16.4042 4.08218 16.5643 4.08218 16.7606C4.08218 16.9583 4.2409 17.117 4.4386 17.117H4.65719L4.6558 18.0512C4.65719 18.6555 5.14588 19.1442 5.74874 19.1456H5.79747V19.2514H4.03623V19.0259H3.32338V19.2514H1.87679V19.0259H1.16394V19.2514H0.356425C0.160113 19.2514 0 19.4115 0 19.6078V29.6434C0 29.7381 0.0375922 29.8286 0.104422 29.8954C0.171252 29.9622 0.261752 29.9998 0.356425 29.9998H20.8648C20.9595 29.9998 21.05 29.9622 21.1168 29.8954C21.1836 29.8286 21.2212 29.7381 21.2212 29.6434V19.6078C21.2212 19.5132 21.1836 19.4227 21.1168 19.3558C21.05 19.289 20.9594 19.2514 20.8647 19.2514ZM5.36838 18.0512V16.5782H9.07592V18.0512C9.07453 18.2615 8.90467 18.4313 8.69444 18.4327H5.74837C5.53952 18.4313 5.36838 18.2615 5.36838 18.0512ZM6.51005 19.1442H7.95664V19.2514H6.51005V19.1442ZM0.712433 19.9642H9.71645V29.287H0.712433V19.9642ZM20.5079 29.287H10.4293V22.6777H19.2537V21.9649H10.4293V19.9641H20.5079V29.287Z" fill="white"/>
<path d="M14.4287 21.2758H16.0452C16.2415 21.2758 16.4016 21.1157 16.4016 20.9194C16.4016 20.7217 16.2415 20.563 16.0452 20.563H14.4287C14.2324 20.563 14.0723 20.7217 14.0723 20.9194C14.0723 21.1157 14.2324 21.2758 14.4287 21.2758Z" fill="white"/>
<path d="M11.3681 24.5157C11.1718 24.5157 11.0131 24.6745 11.0117 24.8722V26.2742C11.0117 26.4705 11.1718 26.6306 11.3681 26.6306C11.5658 26.6306 11.7246 26.4705 11.7246 26.2742V24.8722C11.7246 24.6745 11.5658 24.5157 11.3681 24.5157Z" fill="white"/>
<path d="M8.68833 22.1473H1.77439C1.57669 22.1473 1.41797 22.3061 1.41797 22.5038V28.1745C1.41797 28.3708 1.57669 28.5309 1.77439 28.5309H8.68833C8.88604 28.5309 9.04476 28.3708 9.04476 28.1745V22.5038C9.04476 22.4091 9.00717 22.3186 8.94034 22.2518C8.87351 22.1849 8.78301 22.1473 8.68833 22.1473ZM8.33191 27.8181H2.13082V22.8602H8.33191V27.8181Z" fill="white"/>
<path d="M2.76072 24.6576H7.70327C7.79795 24.6576 7.88845 24.62 7.95528 24.5532C8.02211 24.4864 8.0597 24.3959 8.0597 24.3012V23.5884C8.0597 23.392 7.89959 23.2319 7.70327 23.2319C7.50696 23.2319 7.34685 23.392 7.34685 23.5884V23.9448H3.11715V23.5884C3.11715 23.392 2.95843 23.2319 2.76072 23.2319C2.56441 23.2319 2.4043 23.392 2.4043 23.5884V24.3012C2.4043 24.3959 2.44189 24.4864 2.50872 24.5532C2.57555 24.62 2.66605 24.6576 2.76072 24.6576Z" fill="white"/>
<path d="M7.94046 20.7609C8.04071 20.7609 8.12981 20.8207 8.16879 20.914C8.20639 21.0059 8.1855 21.1131 8.1145 21.1841C8.04349 21.2537 7.93768 21.276 7.84578 21.237C7.7525 21.1994 7.69263 21.1089 7.69263 21.0087C7.69263 20.8723 7.80402 20.7609 7.94046 20.7609ZM6.05112 20.7887C6.15136 20.7887 6.24186 20.8486 6.28085 20.9419C6.31844 21.0338 6.29755 21.141 6.22655 21.212C6.15554 21.2816 6.04973 21.3039 5.95645 21.2649C5.86456 21.2273 5.80469 21.1368 5.80469 21.0365C5.80469 20.9001 5.91467 20.7887 6.05112 20.7887Z" fill="white"/>
<path d="M16.8574 3.89854V5.30058V5.29919C16.8574 5.4969 17.0161 5.65562 17.2138 5.65562C17.4102 5.65562 17.5703 5.4969 17.5703 5.29919V3.89715V3.89854C17.5703 3.70083 17.4102 3.54211 17.2138 3.54211C17.0161 3.54211 16.8574 3.70083 16.8574 3.89854Z" fill="white"/>
<path d="M14.4892 3.54211C14.2929 3.54211 14.1328 3.70083 14.1328 3.89854V5.30058V5.29919C14.1328 5.4969 14.2929 5.65562 14.4892 5.65562C14.6855 5.65562 14.8457 5.4969 14.8457 5.29919V3.89715V3.89854C14.8457 3.80387 14.8081 3.71197 14.7412 3.64514C14.6744 3.57831 14.5839 3.54211 14.4892 3.54211Z" fill="white"/>
<path d="M6.6201 9.07784H24.9956C25.1933 9.07784 25.352 8.91772 25.352 8.72141V6.3768C25.352 6.18049 25.1933 6.02037 24.9956 6.02037C24.7993 6.02037 24.6392 6.18049 24.6392 6.3768V8.36498H16.2842V0.712854H24.6392V4.6029C24.6392 4.79921 24.7993 4.95932 24.9956 4.95932C25.1933 4.95932 25.352 4.79921 25.352 4.6029V0.356427C25.352 0.160114 25.1933 0.00139363 24.9956 0H6.6201C6.42379 0.0013922 6.26367 0.160114 6.26367 0.356427V8.72141C6.26367 8.91772 6.42379 9.07784 6.6201 9.07784ZM6.97652 0.712854H15.571V8.36498H6.97652V0.712854Z" fill="white"/>
</svg>
