<svg width="44" height="44" viewBox="0 0 44 44" fill="none" xmlns="http://www.w3.org/2000/svg">
<path d="M40.3346 22C40.3346 32.1252 32.1265 40.3334 22.0013 40.3334C11.8761 40.3334 3.66797 32.1252 3.66797 22C3.66797 11.8748 11.8761 3.66669 22.0013 3.66669C32.1265 3.66669 40.3346 11.8748 40.3346 22Z" fill="#0C6C40"/>
<path d="M31.168 16.5L24.9912 23.3992C22.5435 26.1331 21.3197 27.5 19.7096 27.5C18.0996 27.5 16.8758 26.1331 14.4281 23.3992L12.8346 21.6194M40.3346 22C40.3346 32.1252 32.1265 40.3334 22.0013 40.3334C11.8761 40.3334 3.66797 32.1252 3.66797 22C3.66797 11.8748 11.8761 3.66669 22.0013 3.66669C32.1265 3.66669 40.3346 11.8748 40.3346 22Z" stroke="#0C6C40" stroke-width="1.5" stroke-linecap="round"/>
<path d="M31.1693 16.5L24.9925 23.3992C22.5448 26.1331 21.321 27.5 19.7109 27.5C18.1009 27.5 16.8771 26.1331 14.4294 23.3992L12.8359 21.6193" stroke="white" stroke-width="1.5" stroke-linecap="round"/>
</svg>
