<svg width="13" height="13" viewBox="0 0 13 13" fill="none" xmlns="http://www.w3.org/2000/svg">
<path d="M9.64445 6.92361C9.92059 6.92361 10.1444 6.69975 10.1444 6.42361C10.1444 6.14747 9.92059 5.92361 9.64445 5.92361L9.64445 6.42361L9.64445 6.92361ZM3 5.92361C2.72386 5.92361 2.5 6.14747 2.5 6.42361C2.5 6.69975 2.72386 6.92361 3 6.92361L3 6.42361L3 5.92361ZM4.30914 8.85513C4.50527 9.04952 4.82185 9.0481 5.01624 8.85197C5.21063 8.65584 5.20922 8.33926 5.01308 8.14487L4.66111 8.5L4.30914 8.85513ZM3.92899 7.77438L3.57702 8.12951L3.92899 7.77438ZM3.92899 5.07284L4.28096 5.42797V5.42797L3.92899 5.07284ZM5.01308 4.70235C5.20922 4.50796 5.21063 4.19138 5.01624 3.99525C4.82185 3.79912 4.50527 3.79771 4.30914 3.99209L4.66111 4.34722L5.01308 4.70235ZM3.00826 6.55373L2.51227 6.61695L2.51227 6.61695L3.00826 6.55373ZM3.00826 6.29349L2.51227 6.23027L2.51227 6.23027L3.00826 6.29349ZM9.64445 6.42361L9.64445 5.92361L3 5.92361L3 6.42361L3 6.92361L9.64445 6.92361L9.64445 6.42361ZM4.66111 8.5L5.01308 8.14487L4.28096 7.41925L3.92899 7.77438L3.57702 8.12951L4.30914 8.85513L4.66111 8.5ZM3.92899 5.07284L4.28096 5.42797L5.01308 4.70235L4.66111 4.34722L4.30914 3.99209L3.57702 4.71771L3.92899 5.07284ZM3.92899 7.77438L4.28096 7.41925C3.98068 7.12164 3.78602 6.92764 3.65638 6.76622C3.53308 6.61268 3.51028 6.53783 3.50425 6.49051L3.00826 6.55373L2.51227 6.61695C2.55119 6.92229 2.69683 7.16842 2.87669 7.39238C3.05021 7.60845 3.29344 7.84845 3.57702 8.12951L3.92899 7.77438ZM3.92899 5.07284L3.57702 4.71771C3.29344 4.99877 3.05021 5.23877 2.87669 5.45484C2.69683 5.6788 2.55119 5.92493 2.51227 6.23027L3.00826 6.29349L3.50425 6.35671C3.51028 6.3094 3.53308 6.23454 3.65638 6.081C3.78602 5.91958 3.98068 5.72558 4.28096 5.42797L3.92899 5.07284ZM3.00826 6.55373L3.50425 6.49051C3.49858 6.44608 3.49858 6.40114 3.50425 6.35671L3.00826 6.29349L2.51227 6.23027C2.49591 6.35865 2.49591 6.48857 2.51227 6.61695L3.00826 6.55373Z" fill="#040505"/>
</svg>
