<svg width="33" height="30" viewBox="0 0 33 30" fill="none" xmlns="http://www.w3.org/2000/svg">
<path d="M13.4088 24.3254L14.0121 24.8232C14.208 24.9378 14.4347 24.9901 14.6616 24.9731C14.9479 24.9552 15.2157 24.8272 15.4082 24.6166C15.5014 24.5136 15.5725 24.3929 15.6173 24.2618C15.662 24.1308 15.6795 23.9921 15.6686 23.8542C15.6583 23.716 15.6203 23.5813 15.5566 23.4579C15.493 23.3346 15.4051 23.225 15.2981 23.1359L10.5894 19.2118C9.46888 18.2764 8.74808 18.3348 7.39256 18.4428C7.22392 18.4568 7.04398 18.4711 6.79278 18.4868L4.54781 18.642L4.96237 24.1999L5.56039 24.1594L6.02999 24.1275C6.09139 24.123 6.15309 24.1308 6.21136 24.1505C6.26964 24.1702 6.32328 24.2014 6.36904 24.2422L10.9345 28.3407C10.9728 28.3759 11.015 28.4166 11.0611 28.4627C11.3508 28.7469 11.8352 29.2233 13.4363 29.1122L26.1729 28.233C26.5161 28.2107 26.8367 28.0561 27.0663 27.8024C27.1761 27.6817 27.2608 27.5406 27.3153 27.3873C27.3698 27.234 27.3931 27.0716 27.3838 26.9093C27.3838 26.897 27.3838 26.8827 27.3803 26.8705C27.3654 26.7085 27.3184 26.5509 27.242 26.407C27.1655 26.263 27.0611 26.1354 26.9347 26.0316C26.6708 25.8112 26.3305 25.7017 25.9863 25.7264L16.9031 26.3535L16.703 26.3678C15.7088 26.4402 14.6743 26.516 13.871 25.8522L13.4691 25.5209C13.4031 25.4768 13.341 25.4307 13.2786 25.381L9.66681 22.3696C9.62222 22.3331 9.58553 22.288 9.55892 22.2371C9.53231 22.1862 9.51634 22.1305 9.51196 22.0733C9.50758 22.0161 9.51488 21.9587 9.53342 21.9044C9.55197 21.8501 9.58138 21.8 9.61989 21.7572C9.69941 21.6699 9.81002 21.6165 9.92845 21.6083C10.0469 21.6001 10.1639 21.6377 10.255 21.7132L13.4014 24.3324L13.4088 24.3254ZM12.0328 12.427C12.6066 12.4289 13.1586 12.2091 13.5714 11.8142C13.7726 11.6229 13.9327 11.3932 14.0421 11.139C14.1515 10.8848 14.2079 10.6114 14.2079 10.3351C14.2079 10.0588 14.1515 9.78529 14.0421 9.5311C13.9327 9.27692 13.7726 9.04726 13.5714 8.85593C13.1586 8.46187 12.6076 8.2417 12.0344 8.2417C11.4611 8.2417 10.9102 8.46187 10.4973 8.85593C10.2956 9.04698 10.1351 9.27654 10.0254 9.53077C9.91572 9.78499 9.85917 10.0586 9.85917 10.3351C9.85917 10.6115 9.91572 10.8851 10.0254 11.1394C10.1351 11.3936 10.2956 11.6232 10.4973 11.8142C10.9095 12.2092 11.4611 12.4291 12.0346 12.427H12.0328ZM14.21 12.4305C13.6243 12.9876 12.8438 13.2987 12.0319 13.2987C11.22 13.2987 10.4395 12.9876 9.85381 12.4305C9.56851 12.1594 9.34149 11.834 9.18641 11.4738C9.03132 11.1136 8.95137 10.726 8.95137 10.3344C8.95137 9.94275 9.03132 9.55518 9.18641 9.19496C9.34149 8.83474 9.56851 8.50933 9.85381 8.23827C10.4399 7.68196 11.2202 7.3714 12.0319 7.3714C12.8436 7.3714 13.6239 7.68196 14.21 8.23827C14.4953 8.50933 14.7223 8.83474 14.8774 9.19496C15.0325 9.55518 15.1125 9.94275 15.1125 10.3344C15.1125 10.726 15.0325 11.1136 14.8774 11.4738C14.7223 11.834 14.4953 12.1594 14.21 12.4305ZM16.7944 11.0749H20.6503C20.7687 11.0734 20.8828 11.1184 20.9677 11.2001C21.0526 11.2818 21.1014 11.3935 21.1033 11.5108V12.7216C21.1037 12.7787 21.1155 12.835 21.1382 12.8874C21.1608 12.9398 21.1938 12.9872 21.2353 13.0268C21.3201 13.109 21.4341 13.1551 21.5528 13.1551C21.6715 13.1551 21.7855 13.109 21.8704 13.0268C21.9121 12.9875 21.9454 12.9402 21.9681 12.8877C21.9908 12.8352 22.0024 12.7787 22.0023 12.7216V11.5108C22.0043 11.3935 22.053 11.2818 22.1379 11.2001C22.2228 11.1184 22.337 11.0734 22.4553 11.0749H24.0934C24.2118 11.0734 24.3259 11.1184 24.4108 11.2001C24.4957 11.2818 24.5445 11.3935 24.5465 11.5108V14.3897C24.5468 14.447 24.5587 14.5036 24.5814 14.5563C24.604 14.609 24.637 14.6567 24.6784 14.6966C24.7638 14.7778 24.8776 14.8231 24.9959 14.8231C25.1143 14.8231 25.2281 14.7778 25.3135 14.6966C25.3553 14.657 25.3886 14.6093 25.4114 14.5566C25.4341 14.5038 25.4458 14.4471 25.4458 14.3897V11.5108C25.4477 11.3935 25.4965 11.2818 25.5814 11.2001C25.6663 11.1184 25.7805 11.0734 25.8988 11.0749H26.2869C26.4901 11.0752 26.6854 10.9972 26.8316 10.8575C26.9029 10.79 26.9596 10.7089 26.9984 10.6191C27.0371 10.5294 27.0571 10.4327 27.0571 10.3351C27.0571 10.2374 27.0371 10.1408 26.9984 10.051C26.9596 9.96119 26.9029 9.88012 26.8316 9.81266C26.686 9.67179 26.4904 9.5932 26.2869 9.59384H16.7947C16.693 9.59493 16.5939 9.56182 16.5136 9.49992C16.4333 9.43803 16.3766 9.35099 16.3527 9.25303C16.0992 8.32764 15.5402 7.513 14.765 6.93899C13.8996 6.29903 12.8332 5.984 11.7554 6.04992C10.6776 6.11585 9.65832 6.55847 8.87897 7.29903C8.46554 7.69151 8.13654 8.16281 7.91178 8.68458C7.68702 9.20634 7.57116 9.76777 7.57116 10.3351C7.57116 10.9024 7.68702 11.4638 7.91178 11.9856C8.13654 12.5073 8.46554 12.9786 8.87897 13.3711C9.65902 14.111 10.6785 14.5532 11.7563 14.6191C12.8342 14.685 13.9008 14.3704 14.7668 13.7311C15.5443 13.1541 16.1035 12.3348 16.3544 11.4049C16.3809 11.3095 16.4384 11.2255 16.518 11.1658C16.5977 11.1062 16.6946 11.0742 16.7944 11.0749ZM20.1966 11.9467H17.132C16.7916 12.9322 16.1595 13.7933 15.3182 14.418C14.2773 15.1887 12.9941 15.5682 11.6971 15.489C10.4001 15.4098 9.17366 14.8771 8.23615 13.9856C7.73922 13.5131 7.34383 12.946 7.07373 12.3182C6.80363 11.6905 6.6644 11.0152 6.6644 10.3328C6.6644 9.65041 6.80363 8.97507 7.07373 8.34735C7.34383 7.71962 7.73922 7.15247 8.23615 6.67997C9.17385 5.78872 10.4005 5.25623 11.6974 5.17736C12.9944 5.0985 14.2775 5.47837 15.3182 6.24932C16.1595 6.87386 16.7916 7.73489 17.132 8.72031H26.2887C26.7307 8.72065 27.1553 8.89154 27.4724 9.19675C27.6277 9.34393 27.7513 9.52077 27.8358 9.71659C27.9203 9.91241 27.9638 10.1232 27.9638 10.3361C27.9638 10.5491 27.9203 10.7598 27.8358 10.9556C27.7513 11.1515 27.6277 11.3283 27.4724 11.4755C27.171 11.7643 26.7726 11.9327 26.3536 11.9484V14.3915C26.353 14.5638 26.3175 14.7343 26.2491 14.8928C26.1806 15.0513 26.0807 15.1945 25.9553 15.3139C25.6979 15.5597 25.3543 15.6971 24.9968 15.6971C24.6393 15.6971 24.2958 15.5597 24.0384 15.3139C23.9129 15.1944 23.8129 15.0511 23.7446 14.8925C23.6762 14.7339 23.6408 14.5632 23.6404 14.3908V11.9467H22.9097V12.7216C22.9096 12.8939 22.8742 13.0643 22.8058 13.2227C22.7375 13.381 22.6374 13.524 22.5118 13.6431C22.255 13.8899 21.9113 14.028 21.5535 14.028C21.1957 14.028 20.852 13.8899 20.5953 13.6431C20.4696 13.524 20.3695 13.381 20.301 13.2227C20.2326 13.0643 20.1972 12.8939 20.1969 12.7216L20.1966 11.9467ZM14.8338 3.96674C14.7514 4.0519 14.639 4.10219 14.52 4.10707C14.401 4.11196 14.2848 4.07107 14.1956 3.99296C14.152 3.95486 14.1167 3.90847 14.0917 3.85655C14.0667 3.80464 14.0524 3.74826 14.0499 3.69079C14.0473 3.63331 14.0564 3.57591 14.0767 3.52201C14.097 3.4681 14.1281 3.4188 14.168 3.37704C15.1926 2.3064 16.4282 1.45561 17.7982 0.877393C19.7978 0.0349072 22.0029 -0.207793 24.1404 0.179365C26.2779 0.566523 28.2538 1.56652 29.8232 3.05546C30.8275 4.00949 31.6267 5.15494 32.1726 6.4229C32.7186 7.69086 33 9.05513 33 10.4336C33 11.8122 32.7186 13.1764 32.1726 14.4444C31.6267 15.7123 30.8275 16.8578 29.8232 17.8118C28.7602 18.8288 27.5019 19.6239 26.1228 20.1499C24.7438 20.6758 23.2722 20.922 21.7953 20.8738C20.3184 20.8255 18.8663 20.4838 17.5253 19.869C16.1842 19.2541 14.9815 18.3786 13.9885 17.2945C13.9496 17.252 13.9198 17.2021 13.9009 17.1479C13.8819 17.0937 13.8743 17.0362 13.8784 16.979C13.8825 16.9218 13.8982 16.866 13.9246 16.815C13.9511 16.7639 13.9877 16.7187 14.0322 16.6821C14.1228 16.6061 14.2396 16.5679 14.358 16.5755C14.4764 16.583 14.5873 16.6358 14.6673 16.7226C15.6082 17.7574 16.7598 18.5828 18.0462 19.1443C19.889 19.9469 21.9307 20.1901 23.913 19.843C25.8953 19.4959 27.7292 18.5742 29.1828 17.1945C30.1033 16.3201 30.8358 15.2703 31.3362 14.1082C31.8366 12.9461 32.0946 11.6957 32.0946 10.4322C32.0946 9.16879 31.8366 7.9184 31.3362 6.75628C30.8358 5.59417 30.1033 4.54434 29.1828 3.66997C27.7447 2.30473 25.9337 1.38781 23.9744 1.03294C22.0152 0.678064 19.9938 0.900855 18.1612 1.67367C16.9049 2.20345 15.7722 2.98404 14.8338 3.96674ZM4.3901 16.4849L4.48536 17.7734L6.73209 17.6182C6.90285 17.6073 7.1156 17.5899 7.31741 17.5738C8.91849 17.4469 9.76984 17.378 11.18 18.5525L15.8887 22.4798C16.0854 22.6415 16.2473 22.8409 16.3645 23.066C16.4817 23.2911 16.5519 23.5373 16.5709 23.7898C16.5899 24.0424 16.5573 24.2962 16.4751 24.536C16.3928 24.7758 16.2626 24.9968 16.0923 25.1856H16.0902C15.9675 25.3239 15.8248 25.4435 15.6668 25.5404C15.9804 25.5478 16.3103 25.523 16.6353 25.4999L16.8389 25.4859L25.9217 24.8592C26.5035 24.8179 27.0786 25.0028 27.5249 25.3747C27.7433 25.5543 27.9231 25.7755 28.0534 26.0253C28.1838 26.275 28.2622 26.5482 28.2838 26.8285C28.3042 27.1082 28.2673 27.389 28.1752 27.6541C28.0832 27.9192 27.938 28.1631 27.7483 28.3711C27.361 28.8018 26.8184 29.0643 26.2375 29.102L13.5009 29.9808C11.4849 30.1206 10.8173 29.4638 10.4194 29.072C10.3841 29.037 10.3534 29.0066 10.3202 28.9783L5.89945 25.0084L5.02834 25.0685L5.12537 26.3598C5.13202 26.4768 5.09154 26.5916 5.01282 26.679C4.9341 26.7664 4.82357 26.8193 4.70552 26.8261L1.21864 27.0659C1.10077 27.0749 0.984051 27.0376 0.893778 26.9619C0.803504 26.8863 0.746941 26.7785 0.736342 26.6618L0.000721072 16.7866C-0.00261134 16.7287 0.00562949 16.6708 0.0249699 16.6161C0.0443103 16.5614 0.0743688 16.5111 0.113418 16.4679C0.152467 16.4248 0.199736 16.3897 0.252509 16.3648C0.305281 16.3398 0.362517 16.3254 0.420925 16.3224L3.90568 16.0805C4.02388 16.0713 4.14099 16.1085 4.23165 16.1842C4.32232 16.2599 4.37924 16.368 4.3901 16.4849ZM4.19005 25.9865L3.5197 16.9809L0.937094 17.1592L1.60744 26.1647L4.19005 25.9865Z" fill="white"/>
</svg>
