<svg width="33" height="30" viewBox="0 0 33 30" fill="none" xmlns="http://www.w3.org/2000/svg">
<path d="M5.81888 0.679869H8.16043V0.188086C8.16043 0.0842626 8.24469 0 8.34852 0C8.45234 0 8.5366 0.0842626 8.5366 0.188086V0.679869H10.5444V0.188086C10.5444 0.0842626 10.6286 0 10.7324 0C10.8364 0 10.9205 0.0842626 10.9205 0.188086V0.679869H12.9284V0.188086C12.9284 0.0842626 13.0127 0 13.1165 0C13.2203 0 13.3046 0.0842626 13.3046 0.188086V0.679869H15.3123V0.188086C15.3123 0.0842626 15.3966 0 15.5004 0C15.6044 0 15.6886 0.0842626 15.6886 0.188086V0.679869H17.6964V0.188086C17.6964 0.0842626 17.7807 0 17.8845 0C17.9883 0 18.0726 0.0842626 18.0726 0.188086V0.679869H20.0803V0.188086C20.0803 0.0842626 20.1646 0 20.2685 0C20.3724 0 20.4566 0.0842626 20.4566 0.188086V0.679869H22.4644V0.188086C22.4644 0.0842626 22.5486 0 22.6525 0C22.7563 0 22.8406 0.0842626 22.8406 0.188086V0.679869H24.8483V0.188086C24.8483 0.0842626 24.9326 0 25.0365 0C25.1404 0 25.2246 0.0842626 25.2246 0.188086V0.679869H27.5662C27.7738 0.679869 27.9423 0.848269 27.9423 1.05604V3.83896C27.9669 3.88887 27.9807 3.94505 27.9807 4.00448L27.9408 29.5915C27.9418 29.6021 27.9423 29.6129 27.9423 29.6238C27.9423 29.8316 27.7738 30 27.5662 30H5.81888C5.61111 30 5.44271 29.8316 5.44271 29.6238V27.6384H0.376172C0.1684 27.6384 0 27.47 0 27.2622V22.9187C0 22.711 0.1684 22.5425 0.376172 22.5425H5.44497L5.48372 4.19746C5.45751 4.14617 5.44271 4.08812 5.44271 4.02655V1.05604C5.44271 0.848269 5.61111 0.679869 5.81888 0.679869ZM18.9295 11.7437V15.8898C18.9295 15.9937 18.8452 16.0779 18.7414 16.0779H14.5954C14.6431 17.1491 15.0971 18.1147 15.8066 18.8244C16.5577 19.5754 17.5953 20.04 18.7414 20.04C19.8874 20.04 20.925 19.5754 21.6759 18.8243C22.4269 18.0733 22.8915 17.0357 22.8915 15.8898C22.8915 14.7437 22.4269 13.7061 21.6759 12.955C20.9663 12.2454 20.0007 11.7915 18.9295 11.7437ZM14.2218 15.639C14.2846 14.489 14.7768 13.4531 15.5407 12.689C16.3047 11.925 17.3405 11.433 18.4906 11.3701V7.70476H10.5564V15.639H14.2218ZM18.5533 15.7017V11.7437C17.482 11.7915 16.5163 12.2453 15.8066 12.955C15.0969 13.6647 14.6431 14.6305 14.5954 15.7017H18.5533ZM20.9282 27.277L23.2918 22.8932C23.3573 22.7715 23.5091 22.7258 23.6308 22.7913C23.6757 22.8155 23.7103 22.8513 23.7327 22.8932L26.1042 27.2917C26.1696 27.4134 26.124 27.5653 26.0023 27.6307C25.9645 27.6509 25.9239 27.6606 25.8838 27.6606V27.6611H21.1408C21.0023 27.6611 20.89 27.5487 20.89 27.4103C20.89 27.3613 20.904 27.3156 20.9282 27.277ZM23.5123 23.5391L21.5603 27.1595H25.4642L23.5123 23.5391ZM30.9389 7.04909V5.89613C30.9389 5.7923 31.0232 5.70804 31.127 5.70804C31.2308 5.70804 31.3151 5.7923 31.3151 5.89613V7.04909H31.5888C31.7591 7.04909 31.9029 7.16232 31.9493 7.31768L32.8175 9.61033C32.8397 9.65835 32.8523 9.71189 32.8523 9.76832V22.9963L32.8524 23.007V23.8956C32.8524 24.2428 32.7097 24.559 32.4797 24.7889C32.2508 25.0178 31.935 25.1599 31.5878 25.1599H30.6662C30.319 25.1599 30.0031 25.0177 29.7742 24.7889C29.5442 24.559 29.4016 24.2428 29.4016 23.8956V23.007L29.4018 22.9972V9.76832C29.4018 9.71189 29.4142 9.65835 29.4365 9.61033L30.314 7.29298C30.3707 7.14264 30.5135 7.04997 30.6652 7.04985V7.04909H30.9389ZM30.154 23.3831V23.8956C30.154 24.037 30.211 24.1649 30.3032 24.257C30.3961 24.3499 30.5246 24.4076 30.6662 24.4076H31.5878C31.7293 24.4076 31.8579 24.3499 31.9508 24.257C32.0429 24.1649 32.1 24.037 32.1 23.8956V23.3831H30.154ZM31.9324 9.39227L31.3299 7.80144H30.924L30.3216 9.39227H31.9324ZM32.0999 22.6308V10.1445H30.1541V22.6308H32.0999ZM17.4941 25.0053C17.4941 24.8669 17.6065 24.7545 17.7449 24.7545C17.8834 24.7545 17.9957 24.8669 17.9957 25.0053V26.0696C17.9957 26.2082 17.8834 26.3204 17.7449 26.3204C17.6065 26.3204 17.4941 26.2082 17.4941 26.0696V25.0053ZM1.72162 25.0053C1.72162 24.8669 1.83397 24.7545 1.9724 24.7545C2.11083 24.7545 2.22318 24.8669 2.22318 25.0053V26.0696C2.22318 26.2082 2.11083 26.3204 1.9724 26.3204C1.83397 26.3204 1.72162 26.2082 1.72162 26.0696V25.0053ZM4.87607 25.0053C4.87607 24.8669 4.98842 24.7545 5.12685 24.7545C5.26541 24.7545 5.37776 24.8669 5.37776 25.0053V26.0696C5.37776 26.2082 5.26541 26.3204 5.12685 26.3204C4.98842 26.3204 4.87607 26.2082 4.87607 26.0696V25.0053ZM8.03065 25.0053C8.03065 24.8669 8.143 24.7545 8.28143 24.7545C8.41987 24.7545 8.53222 24.8669 8.53222 25.0053V26.0696C8.53222 26.2082 8.41987 26.3204 8.28143 26.3204C8.143 26.3204 8.03065 26.2082 8.03065 26.0696V25.0053ZM11.1851 25.0053C11.1851 24.8669 11.2975 24.7545 11.4359 24.7545C11.5744 24.7545 11.6867 24.8669 11.6867 25.0053V26.0696C11.6867 26.2082 11.5744 26.3204 11.4359 26.3204C11.2975 26.3204 11.1851 26.2082 11.1851 26.0696V25.0053ZM14.3396 25.0053C14.3396 24.8669 14.4519 24.7545 14.5905 24.7545C14.7289 24.7545 14.8413 24.8669 14.8413 25.0053V26.0696C14.8413 26.2082 14.7289 26.3204 14.5905 26.3204C14.4519 26.3204 14.3396 26.2082 14.3396 26.0696V25.0053ZM3.3616 25.4822C3.3616 25.3783 3.44574 25.2941 3.54969 25.2941C3.65351 25.2941 3.73777 25.3783 3.73777 25.4822V26.0696C3.73777 26.1736 3.65351 26.2577 3.54969 26.2577C3.44574 26.2577 3.3616 26.1736 3.3616 26.0696V25.4822ZM6.51606 25.4822C6.51606 25.3783 6.60032 25.2941 6.70414 25.2941C6.80809 25.2941 6.89223 25.3783 6.89223 25.4822V26.0696C6.89223 26.1736 6.80809 26.2577 6.70414 26.2577C6.60032 26.2577 6.51606 26.1736 6.51606 26.0696V25.4822ZM9.67051 25.4822C9.67051 25.3783 9.75478 25.2941 9.8586 25.2941C9.96255 25.2941 10.0468 25.3783 10.0468 25.4822V26.0696C10.0468 26.1736 9.96255 26.2577 9.8586 26.2577C9.75478 26.2577 9.67051 26.1736 9.67051 26.0696V25.4822ZM12.8251 25.4822C12.8251 25.3783 12.9094 25.2941 13.0132 25.2941C13.117 25.2941 13.2013 25.3783 13.2013 25.4822V26.0696C13.2013 26.1736 13.117 26.2577 13.0132 26.2577C12.9094 26.2577 12.8251 26.1736 12.8251 26.0696V25.4822ZM15.9796 25.4822C15.9796 25.3783 16.0638 25.2941 16.1676 25.2941C16.2716 25.2941 16.3557 25.3783 16.3557 25.4822V26.0696C16.3557 26.1736 16.2716 26.2577 16.1676 26.2577C16.0638 26.2577 15.9796 26.1736 15.9796 26.0696V25.4822ZM5.81236 26.8862L5.81888 26.886L5.82528 26.8862H18.9646V23.2948H0.752345V26.8862H5.81236ZM6.19506 27.6384V29.2477H27.192L27.2307 4.40272H6.23255L6.1943 22.5425H19.3408C19.5485 22.5425 19.7169 22.711 19.7169 22.9187V27.2622C19.7169 27.47 19.5485 27.6384 19.3408 27.6384H6.19506ZM18.9922 11.3701C20.1421 11.433 21.178 11.925 21.9419 12.6892C22.7609 13.5082 23.2678 14.6399 23.2678 15.8898C23.2678 17.1395 22.7611 18.2712 21.9419 19.0902C21.1227 19.9094 19.9912 20.4161 18.7414 20.4161C17.4915 20.4161 16.3599 19.9094 15.5408 19.0904C14.7768 18.3264 14.2846 17.2906 14.2218 16.1406H10.3056C10.1672 16.1406 10.0548 16.0283 10.0548 15.8898V7.45398C10.0548 7.31555 10.1672 7.2032 10.3056 7.2032H18.7414C18.8798 7.2032 18.9922 7.31555 18.9922 7.45398V11.3701ZM8.5366 1.43221V2.09754C8.5366 2.20136 8.45234 2.28562 8.34852 2.28562C8.24469 2.28562 8.16043 2.20136 8.16043 2.09754V1.43221H6.19506V3.65038H27.19V1.43221H25.2246V2.09754C25.2246 2.20136 25.1404 2.28562 25.0365 2.28562C24.9326 2.28562 24.8483 2.20136 24.8483 2.09754V1.43221H22.8406V2.09754C22.8406 2.20136 22.7563 2.28562 22.6525 2.28562C22.5486 2.28562 22.4644 2.20136 22.4644 2.09754V1.43221H20.4566V2.09754C20.4566 2.20136 20.3724 2.28562 20.2685 2.28562C20.1646 2.28562 20.0803 2.20136 20.0803 2.09754V1.43221H18.0726V2.09754C18.0726 2.20136 17.9883 2.28562 17.8845 2.28562C17.7807 2.28562 17.6964 2.20136 17.6964 2.09754V1.43221H15.6886V2.09754C15.6886 2.20136 15.6044 2.28562 15.5004 2.28562C15.3966 2.28562 15.3123 2.20136 15.3123 2.09754V1.43221H13.3046V2.09754C13.3046 2.20136 13.2203 2.28562 13.1165 2.28562C13.0127 2.28562 12.9284 2.20136 12.9284 2.09754V1.43221H10.9205V2.09754C10.9205 2.20136 10.8364 2.28562 10.7324 2.28562C10.6286 2.28562 10.5444 2.20136 10.5444 2.09754V1.43221H8.5366Z" fill="white"/>
</svg>
