<svg width="28" height="31" viewBox="0 0 28 31" fill="none" xmlns="http://www.w3.org/2000/svg">
<mask id="path-1-outside-1_691_19579" maskUnits="userSpaceOnUse" x="-0.800781" y="-0.800049" width="29" height="32" fill="black">
<rect fill="white" x="-0.800781" y="-0.800049" width="29" height="32"/>
<path d="M4.67939 8.32628C4.59978 8.32628 4.5266 8.37446 4.49578 8.44998C3.55845 10.8667 0.367603 11.9267 0.334404 11.937C0.28433 11.9565 0.244524 11.9943 0.22398 12.0451C0.202152 12.0946 0.202152 12.1505 0.222696 12.2C0.238104 12.2508 0.274056 12.2925 0.320281 12.3159C0.366503 12.3393 0.420433 12.3432 0.469223 12.3263C0.607896 12.2834 3.75625 11.2326 4.82453 8.73264L8.76896 8.73394C8.04865 11.2978 4.9593 11.9371 4.9261 11.941V11.9397C4.82595 11.9592 4.75662 12.0517 4.7656 12.1545C4.77587 12.2587 4.86062 12.3368 4.96334 12.3368H5.00314C5.14438 12.3108 8.45057 11.6298 9.1747 8.73647H11.6695C11.3986 11.4461 8.86139 12.2002 8.76895 12.2002C8.71888 12.2132 8.67522 12.247 8.64954 12.2926C8.62386 12.3382 8.61744 12.3929 8.63028 12.4436C8.65468 12.5309 8.73172 12.5921 8.8216 12.5934H8.87424C8.90377 12.5934 11.7966 11.7535 12.0688 8.71704H15.343C15.6152 11.7535 18.5081 12.5844 18.5376 12.5934H18.5903C18.6801 12.5921 18.7572 12.5309 18.7816 12.4436C18.7957 12.3929 18.788 12.3382 18.7623 12.2926C18.7366 12.247 18.693 12.2132 18.6429 12.2002C18.535 12.1702 16.0133 11.4332 15.7411 8.71047H18.2359C18.9587 11.6168 22.269 12.2965 22.4101 12.3238H22.4499C22.5513 12.3238 22.6373 12.2444 22.6463 12.1415C22.6553 12.0387 22.586 11.9462 22.4858 11.9267C22.4524 11.9267 19.3631 11.2835 18.643 8.71964H22.5746C23.6364 11.2196 26.7912 12.269 26.9299 12.3133H26.9889C27.0685 12.3185 27.143 12.273 27.1764 12.2C27.1931 12.1493 27.1892 12.0946 27.1661 12.0477C27.1417 11.9995 27.1006 11.9631 27.0518 11.9461C27.0185 11.9461 23.8277 10.8693 22.8905 8.45912V8.46042C22.8597 8.3849 22.7865 8.33542 22.7056 8.33672H19.9052L19.1785 5.84711C21.22 5.27417 22.5118 4.38097 22.5118 3.36013C22.5118 1.58279 18.6302 0.199951 13.6997 0.199951C8.76911 0.199951 4.88747 1.58276 4.88747 3.3497C4.88747 4.36924 6.17917 5.26247 8.22084 5.83668L7.49411 8.32629L4.67939 8.32628ZM5.27773 3.34959C5.27773 2.01625 8.66369 0.599581 13.6994 0.599581C18.7351 0.599581 22.1211 2.02275 22.1211 3.34959C22.1211 4.13346 20.945 4.94597 18.9522 5.48634C18.9253 5.47983 18.897 5.47983 18.87 5.48634C18.8495 5.49154 18.8302 5.50196 18.8135 5.51628C17.1392 5.92255 15.4213 6.11915 13.6993 6.10352C11.9774 6.12566 10.2607 5.93425 8.58497 5.53322C8.56828 5.5189 8.54902 5.50848 8.52848 5.50327C8.50151 5.49676 8.47326 5.49676 8.4463 5.50327C6.46768 4.94597 5.27773 4.13343 5.27773 3.34959ZM8.60453 5.93684C10.275 6.32877 11.9852 6.51888 13.6994 6.50324C15.4135 6.51887 17.1238 6.32876 18.7943 5.93684L19.4941 8.32748L7.90469 8.32618L8.60453 5.93684ZM14.0975 30.2H25.3092C25.4183 30.2 25.5069 30.1101 25.5069 29.9994V15.933C26.4532 15.8237 27.1992 14.8002 27.1992 13.5593C27.1992 13.4499 27.1106 13.3601 27.0015 13.3601H0.396953C0.287814 13.3601 0.199219 13.4499 0.199219 13.5593C0.199219 14.7989 0.945209 15.8224 1.89151 15.933V29.9994C1.89151 30.1101 1.98011 30.2 2.08925 30.2C2.19838 30.2 2.28698 30.1101 2.28698 29.9994V15.9237C2.95724 15.7766 3.50163 15.2844 3.72249 14.6268C4.02808 15.4068 4.65982 15.9432 5.38527 15.9432C6.11199 15.9432 6.73988 15.4068 7.04548 14.6268C7.35492 15.4068 7.9828 15.9432 8.70825 15.9432C9.43498 15.9432 10.0654 15.4068 10.371 14.6268C10.6766 15.4068 11.3084 15.9432 12.0338 15.9432C12.7605 15.9432 13.391 15.4068 13.6966 14.6268C14.0022 15.4068 14.6339 15.9432 15.3593 15.9432C16.0861 15.9432 16.7165 15.4068 17.0221 14.6268C17.3277 15.4068 17.9595 15.9432 18.6849 15.9432C19.4116 15.9432 20.0395 15.4068 20.3477 14.6268C20.6533 15.4068 21.2811 15.9432 22.0079 15.9432C22.7346 15.9432 23.3651 15.4068 23.6707 14.6268H23.6758C23.8966 15.2844 24.4411 15.7766 25.1113 15.9237V29.8001H22.646V18.4967C22.646 18.386 22.5587 18.2962 22.4496 18.2962H16.786C16.6769 18.2962 16.5883 18.386 16.5883 18.4967V29.8001H14.0974C13.9882 29.8001 13.8996 29.8899 13.8996 29.9993C13.8996 30.11 13.9883 30.2 14.0975 30.2ZM2.06006 15.5332C1.30121 15.5332 0.675923 14.7493 0.600157 13.7467H3.5097C3.44422 14.7598 2.81634 15.5332 2.06006 15.5332ZM5.38686 15.5332C4.62801 15.5332 4.00272 14.7493 3.92696 13.7467H6.84291C6.77101 14.7598 6.13929 15.5332 5.38686 15.5332ZM8.70971 15.5332C7.95343 15.5332 7.32558 14.7493 7.25366 13.7467H10.1696C10.0836 14.7598 9.46855 15.5332 8.70971 15.5332ZM12.0365 15.5332C11.2777 15.5332 10.6524 14.7493 10.5766 13.7467H13.4951C13.4194 14.7598 12.7954 15.5332 12.0365 15.5332ZM15.3633 15.5332C14.6045 15.5332 13.9792 14.7493 13.9034 13.7467H16.8219C16.7462 14.7598 16.1222 15.5332 15.362 15.5332H15.3633ZM18.6901 15.5332C17.9313 15.5332 17.306 14.7493 17.2302 13.7467H20.1462C20.073 14.7598 19.4451 15.5332 18.6888 15.5332H18.6901ZM22.013 15.5332C21.2567 15.5332 20.6288 14.7493 20.5569 13.7467H23.4729C23.3958 14.7598 22.7718 15.5332 22.0117 15.5332H22.013ZM23.8889 13.7572H26.8048C26.7291 14.7572 26.105 15.5436 25.3449 15.5436C24.5861 15.5436 23.9543 14.7598 23.8889 13.7572ZM16.9861 18.6959H22.2454V29.7999H16.9861V18.6959ZM14.9215 26.6619V18.4965C14.9215 18.3859 14.8342 18.296 14.725 18.296H4.18352C4.07438 18.296 3.98579 18.3859 3.98579 18.4965V26.6632C3.98579 26.7739 4.07438 26.8625 4.18352 26.8625H14.7214C14.8305 26.8625 14.9191 26.7739 14.9191 26.6632L14.9215 26.6619ZM14.5273 26.4614L4.37991 26.4627V18.6956H14.5247L14.5273 26.4614ZM21.43 25.6749V25.6762C21.4313 25.7296 21.4108 25.7804 21.3748 25.8181C21.3376 25.8546 21.2888 25.8767 21.2362 25.8767H20.6584V27.2765C20.6584 27.3872 20.5698 27.4757 20.4606 27.4757C20.3515 27.4757 20.2629 27.3872 20.2629 27.2765V25.6762C20.2629 25.5655 20.3515 25.4757 20.4606 25.4757H21.2336C21.285 25.4757 21.335 25.4978 21.371 25.5356C21.4082 25.5733 21.4275 25.6241 21.4275 25.6762L21.43 25.6749ZM21.43 20.1619V20.1632C21.4313 20.2153 21.4108 20.2661 21.3748 20.3038C21.3376 20.3416 21.2888 20.3624 21.2362 20.3624H18.1135C18.0043 20.3624 17.9158 20.2739 17.9158 20.1632C17.9158 20.0525 18.0043 19.9627 18.1135 19.9627H21.2362C21.2875 19.964 21.3363 19.9848 21.3723 20.0226C21.4082 20.0603 21.4275 20.1111 21.4275 20.1632L21.43 20.1619ZM21.43 21.4353V21.4366C21.4313 21.4887 21.4108 21.5395 21.3748 21.5772C21.3376 21.615 21.2888 21.6358 21.2362 21.6358H18.1135C18.0043 21.6358 17.9158 21.5473 17.9158 21.4366C17.9158 21.3259 18.0043 21.2361 18.1135 21.2361H21.2362C21.2875 21.2374 21.3363 21.2582 21.3723 21.296C21.4082 21.3338 21.4275 21.3845 21.4275 21.4366L21.43 21.4353ZM21.43 22.7049V22.7062C21.4313 22.7596 21.4108 22.8103 21.3748 22.8481C21.3376 22.8846 21.2888 22.9067 21.2362 22.9067H18.1135C18.0043 22.9067 17.9158 22.8168 17.9158 22.7062C17.9158 22.5955 18.0043 22.5069 18.1135 22.5069H21.2362C21.2875 22.5069 21.3363 22.5291 21.3723 22.5668C21.4082 22.6033 21.4275 22.6541 21.4275 22.7062L21.43 22.7049ZM21.43 23.9744V23.9757C21.4313 24.0291 21.4108 24.0799 21.3748 24.1176C21.3376 24.1554 21.2888 24.1762 21.2362 24.1762H18.1135C18.0043 24.1762 17.9158 24.0864 17.9158 23.9757C17.9158 23.8663 18.0043 23.7765 18.1135 23.7765H21.2362C21.2875 23.7778 21.3363 23.7986 21.3723 23.8364C21.4082 23.8741 21.4275 23.9236 21.4275 23.9757L21.43 23.9744Z"/>
</mask>
<path d="M4.67939 8.32628C4.59978 8.32628 4.5266 8.37446 4.49578 8.44998C3.55845 10.8667 0.367603 11.9267 0.334404 11.937C0.28433 11.9565 0.244524 11.9943 0.22398 12.0451C0.202152 12.0946 0.202152 12.1505 0.222696 12.2C0.238104 12.2508 0.274056 12.2925 0.320281 12.3159C0.366503 12.3393 0.420433 12.3432 0.469223 12.3263C0.607896 12.2834 3.75625 11.2326 4.82453 8.73264L8.76896 8.73394C8.04865 11.2978 4.9593 11.9371 4.9261 11.941V11.9397C4.82595 11.9592 4.75662 12.0517 4.7656 12.1545C4.77587 12.2587 4.86062 12.3368 4.96334 12.3368H5.00314C5.14438 12.3108 8.45057 11.6298 9.1747 8.73647H11.6695C11.3986 11.4461 8.86139 12.2002 8.76895 12.2002C8.71888 12.2132 8.67522 12.247 8.64954 12.2926C8.62386 12.3382 8.61744 12.3929 8.63028 12.4436C8.65468 12.5309 8.73172 12.5921 8.8216 12.5934H8.87424C8.90377 12.5934 11.7966 11.7535 12.0688 8.71704H15.343C15.6152 11.7535 18.5081 12.5844 18.5376 12.5934H18.5903C18.6801 12.5921 18.7572 12.5309 18.7816 12.4436C18.7957 12.3929 18.788 12.3382 18.7623 12.2926C18.7366 12.247 18.693 12.2132 18.6429 12.2002C18.535 12.1702 16.0133 11.4332 15.7411 8.71047H18.2359C18.9587 11.6168 22.269 12.2965 22.4101 12.3238H22.4499C22.5513 12.3238 22.6373 12.2444 22.6463 12.1415C22.6553 12.0387 22.586 11.9462 22.4858 11.9267C22.4524 11.9267 19.3631 11.2835 18.643 8.71964H22.5746C23.6364 11.2196 26.7912 12.269 26.9299 12.3133H26.9889C27.0685 12.3185 27.143 12.273 27.1764 12.2C27.1931 12.1493 27.1892 12.0946 27.1661 12.0477C27.1417 11.9995 27.1006 11.9631 27.0518 11.9461C27.0185 11.9461 23.8277 10.8693 22.8905 8.45912V8.46042C22.8597 8.3849 22.7865 8.33542 22.7056 8.33672H19.9052L19.1785 5.84711C21.22 5.27417 22.5118 4.38097 22.5118 3.36013C22.5118 1.58279 18.6302 0.199951 13.6997 0.199951C8.76911 0.199951 4.88747 1.58276 4.88747 3.3497C4.88747 4.36924 6.17917 5.26247 8.22084 5.83668L7.49411 8.32629L4.67939 8.32628ZM5.27773 3.34959C5.27773 2.01625 8.66369 0.599581 13.6994 0.599581C18.7351 0.599581 22.1211 2.02275 22.1211 3.34959C22.1211 4.13346 20.945 4.94597 18.9522 5.48634C18.9253 5.47983 18.897 5.47983 18.87 5.48634C18.8495 5.49154 18.8302 5.50196 18.8135 5.51628C17.1392 5.92255 15.4213 6.11915 13.6993 6.10352C11.9774 6.12566 10.2607 5.93425 8.58497 5.53322C8.56828 5.5189 8.54902 5.50848 8.52848 5.50327C8.50151 5.49676 8.47326 5.49676 8.4463 5.50327C6.46768 4.94597 5.27773 4.13343 5.27773 3.34959ZM8.60453 5.93684C10.275 6.32877 11.9852 6.51888 13.6994 6.50324C15.4135 6.51887 17.1238 6.32876 18.7943 5.93684L19.4941 8.32748L7.90469 8.32618L8.60453 5.93684ZM14.0975 30.2H25.3092C25.4183 30.2 25.5069 30.1101 25.5069 29.9994V15.933C26.4532 15.8237 27.1992 14.8002 27.1992 13.5593C27.1992 13.4499 27.1106 13.3601 27.0015 13.3601H0.396953C0.287814 13.3601 0.199219 13.4499 0.199219 13.5593C0.199219 14.7989 0.945209 15.8224 1.89151 15.933V29.9994C1.89151 30.1101 1.98011 30.2 2.08925 30.2C2.19838 30.2 2.28698 30.1101 2.28698 29.9994V15.9237C2.95724 15.7766 3.50163 15.2844 3.72249 14.6268C4.02808 15.4068 4.65982 15.9432 5.38527 15.9432C6.11199 15.9432 6.73988 15.4068 7.04548 14.6268C7.35492 15.4068 7.9828 15.9432 8.70825 15.9432C9.43498 15.9432 10.0654 15.4068 10.371 14.6268C10.6766 15.4068 11.3084 15.9432 12.0338 15.9432C12.7605 15.9432 13.391 15.4068 13.6966 14.6268C14.0022 15.4068 14.6339 15.9432 15.3593 15.9432C16.0861 15.9432 16.7165 15.4068 17.0221 14.6268C17.3277 15.4068 17.9595 15.9432 18.6849 15.9432C19.4116 15.9432 20.0395 15.4068 20.3477 14.6268C20.6533 15.4068 21.2811 15.9432 22.0079 15.9432C22.7346 15.9432 23.3651 15.4068 23.6707 14.6268H23.6758C23.8966 15.2844 24.4411 15.7766 25.1113 15.9237V29.8001H22.646V18.4967C22.646 18.386 22.5587 18.2962 22.4496 18.2962H16.786C16.6769 18.2962 16.5883 18.386 16.5883 18.4967V29.8001H14.0974C13.9882 29.8001 13.8996 29.8899 13.8996 29.9993C13.8996 30.11 13.9883 30.2 14.0975 30.2ZM2.06006 15.5332C1.30121 15.5332 0.675923 14.7493 0.600157 13.7467H3.5097C3.44422 14.7598 2.81634 15.5332 2.06006 15.5332ZM5.38686 15.5332C4.62801 15.5332 4.00272 14.7493 3.92696 13.7467H6.84291C6.77101 14.7598 6.13929 15.5332 5.38686 15.5332ZM8.70971 15.5332C7.95343 15.5332 7.32558 14.7493 7.25366 13.7467H10.1696C10.0836 14.7598 9.46855 15.5332 8.70971 15.5332ZM12.0365 15.5332C11.2777 15.5332 10.6524 14.7493 10.5766 13.7467H13.4951C13.4194 14.7598 12.7954 15.5332 12.0365 15.5332ZM15.3633 15.5332C14.6045 15.5332 13.9792 14.7493 13.9034 13.7467H16.8219C16.7462 14.7598 16.1222 15.5332 15.362 15.5332H15.3633ZM18.6901 15.5332C17.9313 15.5332 17.306 14.7493 17.2302 13.7467H20.1462C20.073 14.7598 19.4451 15.5332 18.6888 15.5332H18.6901ZM22.013 15.5332C21.2567 15.5332 20.6288 14.7493 20.5569 13.7467H23.4729C23.3958 14.7598 22.7718 15.5332 22.0117 15.5332H22.013ZM23.8889 13.7572H26.8048C26.7291 14.7572 26.105 15.5436 25.3449 15.5436C24.5861 15.5436 23.9543 14.7598 23.8889 13.7572ZM16.9861 18.6959H22.2454V29.7999H16.9861V18.6959ZM14.9215 26.6619V18.4965C14.9215 18.3859 14.8342 18.296 14.725 18.296H4.18352C4.07438 18.296 3.98579 18.3859 3.98579 18.4965V26.6632C3.98579 26.7739 4.07438 26.8625 4.18352 26.8625H14.7214C14.8305 26.8625 14.9191 26.7739 14.9191 26.6632L14.9215 26.6619ZM14.5273 26.4614L4.37991 26.4627V18.6956H14.5247L14.5273 26.4614ZM21.43 25.6749V25.6762C21.4313 25.7296 21.4108 25.7804 21.3748 25.8181C21.3376 25.8546 21.2888 25.8767 21.2362 25.8767H20.6584V27.2765C20.6584 27.3872 20.5698 27.4757 20.4606 27.4757C20.3515 27.4757 20.2629 27.3872 20.2629 27.2765V25.6762C20.2629 25.5655 20.3515 25.4757 20.4606 25.4757H21.2336C21.285 25.4757 21.335 25.4978 21.371 25.5356C21.4082 25.5733 21.4275 25.6241 21.4275 25.6762L21.43 25.6749ZM21.43 20.1619V20.1632C21.4313 20.2153 21.4108 20.2661 21.3748 20.3038C21.3376 20.3416 21.2888 20.3624 21.2362 20.3624H18.1135C18.0043 20.3624 17.9158 20.2739 17.9158 20.1632C17.9158 20.0525 18.0043 19.9627 18.1135 19.9627H21.2362C21.2875 19.964 21.3363 19.9848 21.3723 20.0226C21.4082 20.0603 21.4275 20.1111 21.4275 20.1632L21.43 20.1619ZM21.43 21.4353V21.4366C21.4313 21.4887 21.4108 21.5395 21.3748 21.5772C21.3376 21.615 21.2888 21.6358 21.2362 21.6358H18.1135C18.0043 21.6358 17.9158 21.5473 17.9158 21.4366C17.9158 21.3259 18.0043 21.2361 18.1135 21.2361H21.2362C21.2875 21.2374 21.3363 21.2582 21.3723 21.296C21.4082 21.3338 21.4275 21.3845 21.4275 21.4366L21.43 21.4353ZM21.43 22.7049V22.7062C21.4313 22.7596 21.4108 22.8103 21.3748 22.8481C21.3376 22.8846 21.2888 22.9067 21.2362 22.9067H18.1135C18.0043 22.9067 17.9158 22.8168 17.9158 22.7062C17.9158 22.5955 18.0043 22.5069 18.1135 22.5069H21.2362C21.2875 22.5069 21.3363 22.5291 21.3723 22.5668C21.4082 22.6033 21.4275 22.6541 21.4275 22.7062L21.43 22.7049ZM21.43 23.9744V23.9757C21.4313 24.0291 21.4108 24.0799 21.3748 24.1176C21.3376 24.1554 21.2888 24.1762 21.2362 24.1762H18.1135C18.0043 24.1762 17.9158 24.0864 17.9158 23.9757C17.9158 23.8663 18.0043 23.7765 18.1135 23.7765H21.2362C21.2875 23.7778 21.3363 23.7986 21.3723 23.8364C21.4082 23.8741 21.4275 23.9236 21.4275 23.9757L21.43 23.9744Z" fill="white"/>
<path d="M4.67939 8.32628C4.59978 8.32628 4.5266 8.37446 4.49578 8.44998C3.55845 10.8667 0.367603 11.9267 0.334404 11.937C0.28433 11.9565 0.244524 11.9943 0.22398 12.0451C0.202152 12.0946 0.202152 12.1505 0.222696 12.2C0.238104 12.2508 0.274056 12.2925 0.320281 12.3159C0.366503 12.3393 0.420433 12.3432 0.469223 12.3263C0.607896 12.2834 3.75625 11.2326 4.82453 8.73264L8.76896 8.73394C8.04865 11.2978 4.9593 11.9371 4.9261 11.941V11.9397C4.82595 11.9592 4.75662 12.0517 4.7656 12.1545C4.77587 12.2587 4.86062 12.3368 4.96334 12.3368H5.00314C5.14438 12.3108 8.45057 11.6298 9.1747 8.73647H11.6695C11.3986 11.4461 8.86139 12.2002 8.76895 12.2002C8.71888 12.2132 8.67522 12.247 8.64954 12.2926C8.62386 12.3382 8.61744 12.3929 8.63028 12.4436C8.65468 12.5309 8.73172 12.5921 8.8216 12.5934H8.87424C8.90377 12.5934 11.7966 11.7535 12.0688 8.71704H15.343C15.6152 11.7535 18.5081 12.5844 18.5376 12.5934H18.5903C18.6801 12.5921 18.7572 12.5309 18.7816 12.4436C18.7957 12.3929 18.788 12.3382 18.7623 12.2926C18.7366 12.247 18.693 12.2132 18.6429 12.2002C18.535 12.1702 16.0133 11.4332 15.7411 8.71047H18.2359C18.9587 11.6168 22.269 12.2965 22.4101 12.3238H22.4499C22.5513 12.3238 22.6373 12.2444 22.6463 12.1415C22.6553 12.0387 22.586 11.9462 22.4858 11.9267C22.4524 11.9267 19.3631 11.2835 18.643 8.71964H22.5746C23.6364 11.2196 26.7912 12.269 26.9299 12.3133H26.9889C27.0685 12.3185 27.143 12.273 27.1764 12.2C27.1931 12.1493 27.1892 12.0946 27.1661 12.0477C27.1417 11.9995 27.1006 11.9631 27.0518 11.9461C27.0185 11.9461 23.8277 10.8693 22.8905 8.45912V8.46042C22.8597 8.3849 22.7865 8.33542 22.7056 8.33672H19.9052L19.1785 5.84711C21.22 5.27417 22.5118 4.38097 22.5118 3.36013C22.5118 1.58279 18.6302 0.199951 13.6997 0.199951C8.76911 0.199951 4.88747 1.58276 4.88747 3.3497C4.88747 4.36924 6.17917 5.26247 8.22084 5.83668L7.49411 8.32629L4.67939 8.32628ZM5.27773 3.34959C5.27773 2.01625 8.66369 0.599581 13.6994 0.599581C18.7351 0.599581 22.1211 2.02275 22.1211 3.34959C22.1211 4.13346 20.945 4.94597 18.9522 5.48634C18.9253 5.47983 18.897 5.47983 18.87 5.48634C18.8495 5.49154 18.8302 5.50196 18.8135 5.51628C17.1392 5.92255 15.4213 6.11915 13.6993 6.10352C11.9774 6.12566 10.2607 5.93425 8.58497 5.53322C8.56828 5.5189 8.54902 5.50848 8.52848 5.50327C8.50151 5.49676 8.47326 5.49676 8.4463 5.50327C6.46768 4.94597 5.27773 4.13343 5.27773 3.34959ZM8.60453 5.93684C10.275 6.32877 11.9852 6.51888 13.6994 6.50324C15.4135 6.51887 17.1238 6.32876 18.7943 5.93684L19.4941 8.32748L7.90469 8.32618L8.60453 5.93684ZM14.0975 30.2H25.3092C25.4183 30.2 25.5069 30.1101 25.5069 29.9994V15.933C26.4532 15.8237 27.1992 14.8002 27.1992 13.5593C27.1992 13.4499 27.1106 13.3601 27.0015 13.3601H0.396953C0.287814 13.3601 0.199219 13.4499 0.199219 13.5593C0.199219 14.7989 0.945209 15.8224 1.89151 15.933V29.9994C1.89151 30.1101 1.98011 30.2 2.08925 30.2C2.19838 30.2 2.28698 30.1101 2.28698 29.9994V15.9237C2.95724 15.7766 3.50163 15.2844 3.72249 14.6268C4.02808 15.4068 4.65982 15.9432 5.38527 15.9432C6.11199 15.9432 6.73988 15.4068 7.04548 14.6268C7.35492 15.4068 7.9828 15.9432 8.70825 15.9432C9.43498 15.9432 10.0654 15.4068 10.371 14.6268C10.6766 15.4068 11.3084 15.9432 12.0338 15.9432C12.7605 15.9432 13.391 15.4068 13.6966 14.6268C14.0022 15.4068 14.6339 15.9432 15.3593 15.9432C16.0861 15.9432 16.7165 15.4068 17.0221 14.6268C17.3277 15.4068 17.9595 15.9432 18.6849 15.9432C19.4116 15.9432 20.0395 15.4068 20.3477 14.6268C20.6533 15.4068 21.2811 15.9432 22.0079 15.9432C22.7346 15.9432 23.3651 15.4068 23.6707 14.6268H23.6758C23.8966 15.2844 24.4411 15.7766 25.1113 15.9237V29.8001H22.646V18.4967C22.646 18.386 22.5587 18.2962 22.4496 18.2962H16.786C16.6769 18.2962 16.5883 18.386 16.5883 18.4967V29.8001H14.0974C13.9882 29.8001 13.8996 29.8899 13.8996 29.9993C13.8996 30.11 13.9883 30.2 14.0975 30.2ZM2.06006 15.5332C1.30121 15.5332 0.675923 14.7493 0.600157 13.7467H3.5097C3.44422 14.7598 2.81634 15.5332 2.06006 15.5332ZM5.38686 15.5332C4.62801 15.5332 4.00272 14.7493 3.92696 13.7467H6.84291C6.77101 14.7598 6.13929 15.5332 5.38686 15.5332ZM8.70971 15.5332C7.95343 15.5332 7.32558 14.7493 7.25366 13.7467H10.1696C10.0836 14.7598 9.46855 15.5332 8.70971 15.5332ZM12.0365 15.5332C11.2777 15.5332 10.6524 14.7493 10.5766 13.7467H13.4951C13.4194 14.7598 12.7954 15.5332 12.0365 15.5332ZM15.3633 15.5332C14.6045 15.5332 13.9792 14.7493 13.9034 13.7467H16.8219C16.7462 14.7598 16.1222 15.5332 15.362 15.5332H15.3633ZM18.6901 15.5332C17.9313 15.5332 17.306 14.7493 17.2302 13.7467H20.1462C20.073 14.7598 19.4451 15.5332 18.6888 15.5332H18.6901ZM22.013 15.5332C21.2567 15.5332 20.6288 14.7493 20.5569 13.7467H23.4729C23.3958 14.7598 22.7718 15.5332 22.0117 15.5332H22.013ZM23.8889 13.7572H26.8048C26.7291 14.7572 26.105 15.5436 25.3449 15.5436C24.5861 15.5436 23.9543 14.7598 23.8889 13.7572ZM16.9861 18.6959H22.2454V29.7999H16.9861V18.6959ZM14.9215 26.6619V18.4965C14.9215 18.3859 14.8342 18.296 14.725 18.296H4.18352C4.07438 18.296 3.98579 18.3859 3.98579 18.4965V26.6632C3.98579 26.7739 4.07438 26.8625 4.18352 26.8625H14.7214C14.8305 26.8625 14.9191 26.7739 14.9191 26.6632L14.9215 26.6619ZM14.5273 26.4614L4.37991 26.4627V18.6956H14.5247L14.5273 26.4614ZM21.43 25.6749V25.6762C21.4313 25.7296 21.4108 25.7804 21.3748 25.8181C21.3376 25.8546 21.2888 25.8767 21.2362 25.8767H20.6584V27.2765C20.6584 27.3872 20.5698 27.4757 20.4606 27.4757C20.3515 27.4757 20.2629 27.3872 20.2629 27.2765V25.6762C20.2629 25.5655 20.3515 25.4757 20.4606 25.4757H21.2336C21.285 25.4757 21.335 25.4978 21.371 25.5356C21.4082 25.5733 21.4275 25.6241 21.4275 25.6762L21.43 25.6749ZM21.43 20.1619V20.1632C21.4313 20.2153 21.4108 20.2661 21.3748 20.3038C21.3376 20.3416 21.2888 20.3624 21.2362 20.3624H18.1135C18.0043 20.3624 17.9158 20.2739 17.9158 20.1632C17.9158 20.0525 18.0043 19.9627 18.1135 19.9627H21.2362C21.2875 19.964 21.3363 19.9848 21.3723 20.0226C21.4082 20.0603 21.4275 20.1111 21.4275 20.1632L21.43 20.1619ZM21.43 21.4353V21.4366C21.4313 21.4887 21.4108 21.5395 21.3748 21.5772C21.3376 21.615 21.2888 21.6358 21.2362 21.6358H18.1135C18.0043 21.6358 17.9158 21.5473 17.9158 21.4366C17.9158 21.3259 18.0043 21.2361 18.1135 21.2361H21.2362C21.2875 21.2374 21.3363 21.2582 21.3723 21.296C21.4082 21.3338 21.4275 21.3845 21.4275 21.4366L21.43 21.4353ZM21.43 22.7049V22.7062C21.4313 22.7596 21.4108 22.8103 21.3748 22.8481C21.3376 22.8846 21.2888 22.9067 21.2362 22.9067H18.1135C18.0043 22.9067 17.9158 22.8168 17.9158 22.7062C17.9158 22.5955 18.0043 22.5069 18.1135 22.5069H21.2362C21.2875 22.5069 21.3363 22.5291 21.3723 22.5668C21.4082 22.6033 21.4275 22.6541 21.4275 22.7062L21.43 22.7049ZM21.43 23.9744V23.9757C21.4313 24.0291 21.4108 24.0799 21.3748 24.1176C21.3376 24.1554 21.2888 24.1762 21.2362 24.1762H18.1135C18.0043 24.1762 17.9158 24.0864 17.9158 23.9757C17.9158 23.8663 18.0043 23.7765 18.1135 23.7765H21.2362C21.2875 23.7778 21.3363 23.7986 21.3723 23.8364C21.4082 23.8741 21.4275 23.9236 21.4275 23.9757L21.43 23.9744Z" stroke="white" stroke-width="0.4" mask="url(#path-1-outside-1_691_19579)"/>
</svg>
