<svg width="25" height="30" viewBox="0 0 25 30" fill="none" xmlns="http://www.w3.org/2000/svg">
<path d="M16.1675 29.313V27.3326L9.12676 20.2868H8.59801V26.1465C8.59801 26.2729 8.49571 26.3755 8.36941 26.3755C8.24322 26.3755 8.14081 26.2729 8.14081 26.1465V20.2868H1.83418C1.51779 20.2868 1.23078 20.4158 1.02333 20.6236V20.625C0.815075 20.8337 0.685687 21.1214 0.685687 21.4374V28.1623C0.685687 28.4784 0.815075 28.7661 1.02333 28.9747V28.9761C1.23078 29.1839 1.51779 29.313 1.83418 29.313H16.1675ZM16.6247 27.7902V29.313H22.9311C23.2467 29.313 23.5338 29.1835 23.7422 28.9747H23.7436C23.9512 28.7669 24.08 28.4793 24.08 28.1623V24.2574L24.0672 24.2703C23.8467 24.4912 23.5704 24.6566 23.262 24.7428L19.722 28.2926C19.3653 28.6505 18.8952 28.8294 18.4253 28.8297C17.9555 28.8299 17.4856 28.6516 17.1291 28.2949L16.6247 27.7902ZM22.2285 24.8099H16.0587C15.5539 24.8099 15.0952 24.6032 14.7628 24.2703C14.4305 23.9374 14.2242 23.4779 14.2242 22.9721V22.2671L13.1499 23.3445L17.6114 27.8092C17.8354 28.0334 18.1305 28.1454 18.4253 28.1454C18.7197 28.1453 19.0142 28.0333 19.2372 27.8097L22.2285 24.8099ZM12.8273 23.0218L14.2242 21.6208V11.6585L13.8403 11.2744L9.70603 15.4203C9.61722 15.5098 9.47286 15.5101 9.38371 15.4213C9.29444 15.3323 9.29398 15.1877 9.38279 15.0982L13.5177 10.9516L9.05624 6.48676C8.83221 6.26256 8.53708 6.15057 8.2423 6.15069C7.94775 6.1508 7.65332 6.26267 7.43032 6.4863L2.68606 11.244C2.46226 11.4685 2.35047 11.7641 2.35058 12.0594C2.3507 12.3544 2.46248 12.6494 2.68583 12.8727L12.8273 23.0218ZM14.2242 10.6902V1.8379C14.2242 1.33214 14.4305 0.872519 14.7628 0.539657C15.0951 0.206679 15.5539 0 16.0587 0H22.7712C23.2761 0 23.7349 0.206679 24.0672 0.539542C24.3996 0.872519 24.6059 1.33214 24.6059 1.8379V20.6911C24.6507 20.7917 24.687 20.8976 24.7137 21.008C24.7385 21.1108 24.7546 21.2176 24.7611 21.3271C24.9256 21.6169 25.0051 21.9428 24.9997 22.2673C24.9948 22.5695 24.9168 22.8704 24.7658 23.1402V28.1623C24.7658 28.6667 24.5592 29.1262 24.2264 29.4598L24.2271 29.4605C23.8948 29.7933 23.436 30 22.9311 30H1.83418C1.33057 30 0.872111 29.7931 0.539154 29.4598L0.538468 29.4605C0.206197 29.1276 0 28.668 0 28.1623V21.4374C0 20.9318 0.206197 20.4721 0.538468 20.1393L0.539154 20.14C0.872111 19.8066 1.33057 19.5997 1.83418 19.5997H8.44027L2.20359 13.3586C1.84641 13.0012 1.66775 12.5302 1.66741 12.0594C1.66718 11.5888 1.84515 11.1181 2.20108 10.7611L6.94545 6.00321C7.30218 5.6455 7.77242 5.46653 8.2423 5.4663C8.71208 5.46607 9.18197 5.64435 9.53835 6.00092L14.2242 10.6902ZM22.7712 0.687023H16.0587C15.7433 0.687023 15.456 0.816641 15.2477 1.02538C15.0394 1.23412 14.9099 1.52187 14.9099 1.8379V16.1965H19.1676C19.2938 16.1965 19.3962 16.299 19.3962 16.4255C19.3962 16.552 19.2938 16.6545 19.1676 16.6545H14.9099V22.9721C14.9099 23.2881 15.0394 23.5759 15.2477 23.7846C15.456 23.9932 15.7433 24.123 16.0587 24.123H22.7712H22.7715H22.7736H22.7758C23.0896 24.1217 23.375 23.9923 23.5823 23.7846C23.7896 23.5768 23.9188 23.2909 23.9201 22.9766V22.9744V22.9722V21.3556V20.3473V19.3294V8.61355H18.0708C17.9446 8.61355 17.8422 8.51095 17.8422 8.38454C17.8422 8.25801 17.9446 8.15542 18.0708 8.15542H23.9201V1.8379C23.9201 1.52176 23.7907 1.23412 23.5823 1.02538C23.3739 0.816641 23.0868 0.687023 22.7712 0.687023ZM20.5189 16.6545C20.3928 16.6545 20.2903 16.552 20.2903 16.4255C20.2903 16.299 20.3928 16.1965 20.5189 16.1965H20.6954C20.8216 16.1965 20.924 16.299 20.924 16.4255C20.924 16.552 20.8216 16.6545 20.6954 16.6545H20.5189ZM16.7193 8.15542C16.8456 8.15542 16.9479 8.25801 16.9479 8.38454C16.9479 8.51095 16.8456 8.61355 16.7193 8.61355H16.5429C16.4167 8.61355 16.3143 8.51095 16.3143 8.38454C16.3143 8.25801 16.4167 8.15542 16.5429 8.15542H16.7193ZM22.0853 20.8647C22.4327 20.8647 22.7471 21.0057 22.9748 21.2338C23.2025 21.4619 23.3433 21.7769 23.3433 22.1249C23.3433 22.4727 23.2025 22.7879 22.9748 23.0158C22.7471 23.2439 22.4327 23.385 22.0853 23.385C21.7381 23.385 21.4235 23.2439 21.1959 23.0158C20.9683 22.7879 20.8273 22.4727 20.8273 22.1249C20.8273 21.7769 20.9683 21.4619 21.1959 21.2338C21.4235 21.0057 21.7381 20.8647 22.0853 20.8647ZM22.6516 21.5576C22.5067 21.4124 22.3065 21.3227 22.0853 21.3227C21.8643 21.3227 21.664 21.4124 21.5191 21.5576C21.3743 21.7027 21.2846 21.9033 21.2846 22.1249C21.2846 22.3463 21.3743 22.5469 21.5191 22.692C21.664 22.8372 21.8643 22.927 22.0853 22.927C22.3065 22.927 22.5067 22.8372 22.6516 22.692C22.7964 22.5469 22.8861 22.3463 22.8861 22.1249C22.8861 21.9033 22.7965 21.7027 22.6516 21.5576ZM8.4277 16.0561C8.5164 15.9668 8.66076 15.9663 8.75003 16.0553C8.83918 16.1441 8.83964 16.2887 8.75082 16.3782L8.62624 16.5032C8.53743 16.5925 8.39307 16.593 8.30391 16.504C8.21464 16.4152 8.21419 16.2705 8.303 16.1811L8.4277 16.0561ZM8.14081 27.5004C8.14081 27.3739 8.24322 27.2714 8.36941 27.2714C8.49571 27.2714 8.59801 27.3739 8.59801 27.5004V27.6771C8.59801 27.8035 8.49571 27.9061 8.36941 27.9061C8.24322 27.9061 8.14081 27.8035 8.14081 27.6771V27.5004Z" fill="white"/>
</svg>
