<svg width="18" height="18" viewBox="0 0 18 18" fill="none" xmlns="http://www.w3.org/2000/svg">
<path d="M14.2327 13.1721C13.9398 12.8792 13.465 12.8792 13.1721 13.1721C12.8792 13.465 12.8792 13.9399 13.1721 14.2328L13.7024 13.7024L14.2327 13.1721ZM16.2196 17.2803C16.5125 17.5732 16.9874 17.5732 17.2803 17.2803C17.5732 16.9874 17.5732 16.5126 17.2803 16.2197L16.7499 16.75L16.2196 17.2803ZM13.7024 13.7024L13.1721 14.2328L16.2196 17.2803L16.7499 16.75L17.2803 16.2197L14.2327 13.1721L13.7024 13.7024ZM7.60713 14.4643V13.7143C4.23426 13.7143 1.5 10.98 1.5 7.60713H0.75H0C0 11.8084 3.40583 15.2143 7.60713 15.2143V14.4643ZM14.4643 7.60713H13.7143C13.7143 10.98 10.98 13.7143 7.60713 13.7143V14.4643V15.2143C11.8084 15.2143 15.2143 11.8084 15.2143 7.60713H14.4643ZM7.60713 0.75V1.5C10.98 1.5 13.7143 4.23426 13.7143 7.60713H14.4643H15.2143C15.2143 3.40583 11.8084 0 7.60713 0V0.75ZM7.60713 0.75V0C3.40583 0 0 3.40583 0 7.60713H0.75H1.5C1.5 4.23426 4.23426 1.5 7.60713 1.5V0.75Z" fill="#040505"/>
</svg>
