<svg width="30" height="30" viewBox="0 0 30 30" fill="none" xmlns="http://www.w3.org/2000/svg">
<path d="M26.2557 0H3.74417C1.67762 0.00283597 0.00147467 1.65185 0 3.68643V21.9008C0.00144001 23.9355 1.67773 25.5843 3.74417 25.5872H9.02053C9.17894 25.5872 9.30855 25.4596 9.30855 25.3036C9.30855 25.1462 9.17894 25.0201 9.02053 25.0201H3.74417C1.99445 25.0158 0.577405 23.6192 0.575931 21.8964V7.98266H29.4241V21.9008C29.4226 23.6235 28.0056 25.0187 26.2558 25.023H21.9859C21.8261 25.023 21.6979 25.1506 21.6979 25.3066C21.6979 25.464 21.8261 25.5902 21.9859 25.5902H26.2558C28.3238 25.5887 30 23.9369 30 21.9008V3.68646C29.9986 1.65178 28.3221 0.00290384 26.2557 0ZM0.575857 7.41569V3.68679C0.577297 1.96547 1.99581 0.570278 3.7441 0.567411H26.2556C28.0039 0.570247 29.4224 1.96547 29.4238 3.68679V7.4146L0.575857 7.41569ZM5.2417 2.08024C4.39059 2.08024 3.62303 2.585 3.29757 3.35916C2.97211 4.13333 3.15212 5.02517 3.75409 5.61788C4.35605 6.21056 5.26043 6.3878 6.04675 6.06595C6.83305 5.7455 7.34571 4.98978 7.34571 4.1518C7.34571 3.60309 7.12394 3.07564 6.72934 2.68711C6.33476 2.29861 5.80049 2.08024 5.2417 2.08024ZM5.2417 5.65759C4.62101 5.65759 4.06082 5.28895 3.82318 4.72321C3.58412 4.15888 3.71661 3.50806 4.15584 3.0756C4.59507 2.64315 5.25609 2.51269 5.82926 2.74807C6.40386 2.98202 6.77828 3.5336 6.77828 4.14471C6.77828 4.54599 6.61554 4.93024 6.32751 5.2138C6.03947 5.49736 5.64926 5.65759 5.2417 5.65759ZM10.4259 2.08024C9.57478 2.08024 8.80722 2.585 8.48176 3.35916C8.1563 4.13333 8.33631 5.02517 8.93828 5.61788C9.54024 6.21056 10.4446 6.3878 11.2309 6.06595C12.0172 5.7455 12.5299 4.98978 12.5299 4.1518C12.5285 3.009 11.5866 2.08166 10.4259 2.08024ZM10.4259 5.65759C9.8052 5.65759 9.24501 5.28895 9.00737 4.72321C8.76831 4.15888 8.9008 3.50806 9.34003 3.0756C9.77926 2.64315 10.4403 2.51269 11.0134 2.74807C11.588 2.98202 11.9625 3.5336 11.9625 4.14471C11.9625 4.54599 11.7997 4.93024 11.5117 5.2138C11.2237 5.49736 10.8334 5.65759 10.4259 5.65759ZM25.5368 2.8445H15.0991C14.3661 2.8445 13.7713 3.43009 13.7713 4.1518C13.7713 4.87493 14.3661 5.46053 15.0991 5.46053H25.5368C26.2712 5.46053 26.866 4.87493 26.866 4.1518C26.866 3.43009 26.2712 2.8445 25.5368 2.8445ZM25.5368 4.89334H15.0991C14.742 4.82244 14.4842 4.51192 14.4842 4.15177C14.4842 3.79304 14.7419 3.48251 15.0991 3.41162H25.5368C25.8954 3.48251 26.1531 3.79304 26.1531 4.15177C26.1531 4.51191 25.8954 4.82245 25.5368 4.89334ZM19.7159 26.2682C19.7706 26.3206 19.8009 26.3929 19.8009 26.4681C19.8009 26.5432 19.7706 26.6155 19.7159 26.668C19.6036 26.7786 19.4207 26.7786 19.3083 26.668L15.8823 23.2962C15.77 23.1856 15.77 23.0056 15.8823 22.895L16.359 22.4256C16.4584 22.3264 16.4944 22.1818 16.4512 22.0485C16.4022 21.9095 16.2769 21.8103 16.1286 21.7947L11.382 21.2956C11.2668 21.2842 11.153 21.3239 11.071 21.4047C10.9889 21.4856 10.9485 21.5976 10.9601 21.711L11.4555 26.3844C11.4713 26.529 11.5692 26.6524 11.7089 26.7006C11.8486 26.7488 12.0027 26.7147 12.1078 26.6112C12.4895 26.2553 13.0857 26.2553 13.4673 26.6112L16.4166 29.5151C16.4713 29.5675 16.503 29.6399 16.503 29.7164C16.503 29.7916 16.4714 29.8639 16.4166 29.9163C16.3633 29.9702 16.2899 30 16.2136 30C16.1372 30 16.0638 29.9702 16.0091 29.9163L13.0799 27.0125C13.0079 26.9416 12.9085 26.9005 12.8063 26.9005C12.704 26.9005 12.6061 26.9416 12.5341 27.0125C12.2735 27.272 11.8846 27.3599 11.5361 27.2351C11.1847 27.116 10.9356 26.8055 10.8982 26.4411L10.3912 21.7721C10.361 21.4885 10.4618 21.2063 10.6677 21.0036C10.8722 20.8022 11.1588 20.7016 11.4468 20.7328L16.189 21.2162H16.1904C16.5591 21.2545 16.8716 21.4984 16.9955 21.843C17.1179 22.1861 17.0286 22.5703 16.7665 22.827L16.4943 23.095L19.7159 26.2682ZM3.30177 16.0847C3.30177 15.9288 3.43138 15.8012 3.5898 15.8012H26.4125C26.5723 15.8012 26.7005 15.9288 26.7005 16.0847C26.7005 16.2421 26.5723 16.3683 26.4125 16.3683H3.5898C3.51347 16.3697 3.44003 16.34 3.3853 16.2875C3.33058 16.2336 3.30177 16.1613 3.30177 16.0847ZM3.30177 17.7905C3.30177 17.7139 3.33058 17.6416 3.3853 17.5877C3.44003 17.5338 3.51347 17.5026 3.5898 17.5026H26.4125C26.5723 17.5055 26.7005 17.6331 26.7005 17.7905C26.699 17.945 26.5709 18.0698 26.4125 18.0698H3.5898C3.51491 18.0712 3.44147 18.0428 3.38674 17.989C3.33202 17.9365 3.30177 17.8656 3.30177 17.7905ZM26.4127 19.7755H3.59007C3.43166 19.7755 3.30205 19.6479 3.30205 19.492C3.30205 19.336 3.43166 19.2084 3.59007 19.2084H26.4127C26.5726 19.2084 26.7007 19.336 26.7007 19.492C26.7007 19.6479 26.5726 19.7755 26.4127 19.7755ZM26.7007 21.1934C26.6993 21.3494 26.5711 21.4756 26.4127 21.477H19.3203C19.1619 21.477 19.0323 21.3494 19.0323 21.1934C19.0323 21.0374 19.1619 20.9098 19.3203 20.9098H26.4127C26.5726 20.9098 26.7007 21.0374 26.7007 21.1934ZM3.30187 21.1934C3.30187 21.1183 3.33067 21.0445 3.38539 20.9921C3.44012 20.9382 3.51356 20.9084 3.58989 20.9098H7.22328C7.38169 20.9098 7.5113 21.0374 7.5113 21.1934C7.5113 21.3494 7.38169 21.477 7.22328 21.477H3.58989C3.43148 21.477 3.30187 21.3494 3.30187 21.1934ZM26.7007 22.8949C26.6993 23.0508 26.5711 23.177 26.4127 23.1785H19.5434C19.3835 23.1785 19.2553 23.0508 19.2553 22.8949C19.2553 22.7389 19.3835 22.6113 19.5434 22.6113H26.4127C26.5726 22.6113 26.7007 22.7389 26.7007 22.8949ZM3.30187 22.8949C3.30187 22.8197 3.33067 22.746 3.38539 22.6935C3.44012 22.6397 3.51356 22.6099 3.58989 22.6113H7.43065C7.58907 22.6113 7.71867 22.7389 7.71867 22.8949C7.71867 23.0508 7.58907 23.1785 7.43065 23.1785H3.58989C3.43148 23.1785 3.30187 23.0508 3.30187 22.8949ZM5.13078 13.6276H24.8688C25.3685 13.6503 25.8567 13.4702 26.2182 13.1299C26.5797 12.7896 26.7856 12.3189 26.7856 11.8255C26.7856 11.3334 26.5797 10.8627 26.2182 10.5224C25.8567 10.1821 25.3685 10.0021 24.8688 10.0248H5.13078C4.15297 10.0687 3.38249 10.8613 3.38249 11.8255C3.38249 12.7896 4.15293 13.5837 5.13078 13.6276ZM5.13078 10.6033H24.8688C25.2144 10.5834 25.5514 10.7054 25.802 10.9393C26.0526 11.1733 26.1951 11.498 26.1951 11.8369C26.1951 12.1771 26.0526 12.5018 25.802 12.7358C25.5514 12.9683 25.2144 13.0903 24.8688 13.0718H5.13078C4.46545 13.035 3.94412 12.4933 3.94412 11.8369C3.94412 11.1804 4.46545 10.6387 5.13078 10.6033Z" fill="white"/>
</svg>
