<svg width="24" height="16" viewBox="0 0 24 16" fill="none" xmlns="http://www.w3.org/2000/svg">
<path d="M0 2.20118C0 1.30178 0.616601 0.946746 1.37549 0.899408L4.90909 0.923077C5.12253 0.923077 5.31225 1.06509 5.3834 1.27811C6.18972 3.88166 7.18577 5.49112 8.37154 7.31361C8.44269 7.45562 8.56126 7.52663 8.67984 7.52663C8.7747 7.52663 8.86957 7.47929 8.94071 7.36095L9.01186 7.10059L9.03557 3.00592C9.03557 2.4142 8.75099 2.31953 8.08696 2.22485C7.82609 2.17751 7.66008 1.94083 7.66008 1.70414C7.66008 1.6568 7.66008 1.60947 7.68379 1.56213C8.01581 0.544379 9.05929 0.0236686 10.5296 0.0236686L11.8577 0C12.9486 0 13.9447 0.473373 13.9447 1.86982V7.2426C14.0395 7.31361 14.1344 7.36095 14.253 7.36095C14.4427 7.36095 14.6798 7.2426 14.8696 6.93491C16.1028 5.2071 17.502 3.14793 17.6917 2.05917C17.6917 2.01183 17.7154 1.98817 17.7391 1.94083C18 1.42012 18.664 1.06509 18.9486 0.970414C18.996 0.946746 19.0672 0.923077 19.1621 0.923077H22.8379L23.0751 0.946746C23.4308 0.946746 23.6917 1.18343 23.8103 1.39645C24.0237 1.72781 23.9763 2.08284 24 2.22485V2.39053C23.6443 4.54438 21.1779 6.95858 20.1344 8.52071C19.9921 8.71006 19.9209 8.87574 19.9209 9.04142C19.9209 9.18343 19.9921 9.32544 20.1107 9.46746L23.5731 13.8225C23.7628 14.0828 23.8577 14.3905 23.8577 14.6509C23.8577 15.432 23.1225 15.8817 22.4111 15.9527L22.0079 15.9763H18.4032C18.332 15.9763 18.2846 16 18.2134 16C17.8103 16 17.4783 15.787 17.2411 15.5503C16.4822 14.6272 15.747 13.6805 15.0119 12.7574C14.8696 12.568 14.8221 12.5444 14.6798 12.4497C14.5138 13.1361 14.3715 13.8462 14.2055 14.5562L14.1344 14.9586C14.0158 15.3846 13.7075 15.8343 13.1383 15.9527L12.8063 15.9763H10.4822C6.37945 15.9763 2.70356 10.1538 0.118577 2.88757C0.0474308 2.69822 0 2.43787 0 2.20118Z" fill="#040505"/>
</svg>
